<svg width="438" height="438" viewBox="0 0 438 438" fill="none" xmlns="http://www.w3.org/2000/svg">
<path d="M32.7205 0.091691C31.6505 0.371691 30.6905 1.18169 30.2005 2.24169C29.9705 2.73169 29.9305 2.94169 29.9305 3.76169C29.9305 4.58169 29.9705 4.79169 30.2005 5.28169C31.3005 7.65169 34.3205 8.29169 36.2105 6.56169C37.4205 5.46169 37.7705 3.90169 37.1605 2.29169C36.8605 1.48169 35.9505 0.571691 35.1305 0.271691C34.3905 -0.00830889 33.4005 -0.0783091 32.7205 0.091691ZM34.7405 0.571691C35.3105 0.751691 35.5105 0.881691 36.0405 1.40169C36.5605 1.93169 36.6905 2.13169 36.8705 2.70169C36.9905 3.08169 37.0805 3.55169 37.0805 3.76169C37.0805 3.97169 36.9905 4.44169 36.8705 4.82169C36.6905 5.39169 36.5605 5.59169 36.0405 6.12169C35.5105 6.64169 35.3105 6.77169 34.7405 6.95169C34.3605 7.07169 33.8905 7.16169 33.6805 7.16169C33.4705 7.16169 33.0005 7.07169 32.6205 6.95169C32.0505 6.77169 31.8505 6.64169 31.3205 6.12169C30.8005 5.59169 30.6705 5.39169 30.4905 4.82169C30.3705 4.44169 30.2805 3.97169 30.2805 3.76169C30.2805 3.55169 30.3705 3.08169 30.4905 2.70169C30.6705 2.13169 30.8005 1.93169 31.3205 1.40169C31.8305 0.891691 32.0605 0.741691 32.5905 0.571691C33.4205 0.311691 33.9005 0.311691 34.7405 0.571691Z" fill="black"/>
<path d="M82.3805 0.581716C81.6205 0.871716 80.7805 1.72172 80.5005 2.49172C80.0105 3.80172 80.3005 5.20172 81.2705 6.17172C81.9705 6.87172 82.6805 7.16172 83.6805 7.16172C84.6805 7.16172 85.3905 6.87172 86.0905 6.17172C86.7905 5.47172 87.0805 4.76172 87.0805 3.76172C87.0805 2.76172 86.7905 2.05172 86.0905 1.35172C85.3805 0.641716 84.6805 0.361716 83.6505 0.371716C83.1705 0.371716 82.7505 0.441716 82.3805 0.581716ZM84.6805 0.871716C85.3605 1.07172 85.9905 1.65172 86.3805 2.40172C86.6705 2.97172 86.7205 3.17172 86.7205 3.75172C86.7205 5.45172 85.3605 6.81172 83.6705 6.79172C82.4605 6.78172 81.5005 6.18172 80.9605 5.09172C80.6905 4.53172 80.6405 4.32172 80.6405 3.75172C80.6605 2.62172 81.2305 1.64172 82.1705 1.13172C83.0005 0.671716 83.7505 0.591716 84.6805 0.871716Z" fill="black"/>
<path d="M132.881 0.791717C131.491 1.18172 130.641 2.31172 130.641 3.76172C130.641 5.01172 131.251 5.98172 132.361 6.53172C133.541 7.11172 135.061 6.81172 135.931 5.84172C136.501 5.21172 136.721 4.64172 136.721 3.76172C136.721 2.88172 136.501 2.31172 135.931 1.68172C135.211 0.881717 133.901 0.501717 132.881 0.791717ZM134.941 1.34172C135.841 1.81172 136.381 2.71172 136.381 3.76172C136.381 5.31172 135.231 6.46172 133.681 6.46172C132.141 6.46172 130.961 5.28172 130.971 3.75172C130.981 1.71172 133.131 0.411717 134.941 1.34172Z" fill="black"/>
<path d="M182.691 1.23169C182.081 1.45169 181.361 2.19169 181.151 2.81169C180.791 3.86169 181.021 4.91169 181.781 5.66169C183.471 7.36169 186.381 6.16169 186.381 3.76169C186.381 2.25169 185.151 1.04169 183.641 1.07169C183.361 1.07169 182.931 1.15169 182.691 1.23169ZM184.371 1.46169C184.911 1.61169 185.471 2.05169 185.761 2.55169C185.991 2.94169 186.031 3.12169 186.031 3.76169C186.031 4.59169 185.891 4.93169 185.371 5.45169C184.851 5.97169 184.511 6.11169 183.681 6.11169C183.041 6.11169 182.861 6.07169 182.471 5.84169C181.911 5.51169 181.411 4.80169 181.321 4.20169C181.051 2.39169 182.641 0.961692 184.371 1.46169Z" fill="black"/>
<path d="M233.061 1.50173C231.011 2.04173 230.721 4.87173 232.611 5.85173C233.961 6.54173 235.651 5.75173 235.971 4.26173C236.341 2.54173 234.771 1.05173 233.061 1.50173ZM234.731 1.96173C235.521 2.45173 235.921 3.39173 235.701 4.23173C235.271 5.84173 233.381 6.37173 232.231 5.21173C231.121 4.11173 231.541 2.32173 233.031 1.77173C233.461 1.61173 234.321 1.71173 234.731 1.96173Z" fill="black"/>
<path d="M283.001 1.87168C282.521 2.01168 281.911 2.67168 281.771 3.18168C281.541 4.07168 281.891 5.00168 282.651 5.47168C283.221 5.83168 284.191 5.81168 284.751 5.44168C285.371 5.03168 285.631 4.54168 285.631 3.76168C285.631 2.99168 285.371 2.49168 284.781 2.10168C284.351 1.81168 283.531 1.71168 283.001 1.87168ZM284.491 2.21168C284.871 2.41168 285.261 2.91168 285.381 3.36168C285.701 4.56168 284.471 5.78168 283.261 5.45168C282.711 5.31168 282.131 4.73168 281.991 4.18168C281.611 2.77168 283.181 1.54168 284.491 2.21168Z" fill="black"/>
<path d="M332.901 2.32171C331.911 2.83171 331.791 4.43171 332.711 5.08171C333.121 5.38171 333.941 5.44171 334.421 5.21171C335.451 4.72171 335.591 3.10171 334.651 2.44171C334.241 2.15171 333.361 2.09171 332.901 2.32171ZM334.451 2.56171C335.321 3.08171 335.281 4.54171 334.391 5.01171C333.411 5.51171 332.281 4.85171 332.281 3.78171C332.281 2.93171 332.841 2.36171 333.681 2.36171C333.951 2.36171 334.261 2.44171 334.451 2.56171Z" fill="black"/>
<path d="M383.071 2.65172C382.181 3.14172 382.211 4.47172 383.131 4.90172C383.561 5.11172 383.861 5.10172 384.271 4.88172C384.641 4.68172 384.981 4.15172 384.981 3.78172C384.981 3.43172 384.701 2.90172 384.431 2.72172C384.041 2.46172 383.481 2.43172 383.071 2.65172ZM384.441 3.00172C384.721 3.28172 384.781 3.42172 384.781 3.76172C384.781 4.10172 384.721 4.24172 384.441 4.52172C384.161 4.80172 384.021 4.86172 383.681 4.86172C383.341 4.86172 383.201 4.80172 382.921 4.52172C382.641 4.24172 382.581 4.10172 382.581 3.76172C382.581 3.42172 382.641 3.28172 382.921 3.00172C383.201 2.72172 383.341 2.66172 383.681 2.66172C384.021 2.66172 384.161 2.72172 384.441 3.00172Z" fill="black"/>
<path d="M433.071 3.15172C432.871 3.35172 432.781 3.54172 432.781 3.76172C432.781 3.98172 432.871 4.17172 433.071 4.37172C433.271 4.57172 433.461 4.66172 433.681 4.66172C433.901 4.66172 434.091 4.57172 434.291 4.37172C434.491 4.17172 434.581 3.98172 434.581 3.76172C434.581 3.54172 434.491 3.35172 434.291 3.15172C434.091 2.95172 433.901 2.86172 433.681 2.86172C433.461 2.86172 433.271 2.95172 433.071 3.15172ZM434.231 3.21172C434.381 3.35172 434.481 3.57172 434.481 3.74172C434.481 4.12172 434.051 4.56172 433.681 4.56172C433.521 4.56172 433.301 4.45172 433.141 4.30172C432.991 4.14172 432.881 3.92172 432.881 3.76172C432.881 3.39172 433.321 2.96172 433.701 2.96172C433.871 2.96172 434.091 3.06172 434.231 3.21172Z" fill="black"/>
<path d="M7.88051 26.4917C7.39051 26.6517 6.55051 27.5117 6.40051 28.0217C6.12051 28.9617 6.32051 29.7117 7.03051 30.4117C7.54051 30.9317 8.05051 31.1617 8.68051 31.1617C9.92051 31.1617 11.0805 30.0017 11.0805 28.7617C11.0805 28.1317 10.8505 27.6217 10.3305 27.1117C9.63051 26.4017 8.81051 26.2017 7.88051 26.4917Z" fill="black"/>
<path d="M57.9905 26.7117C57.1905 26.9617 56.4805 27.9217 56.4805 28.7617C56.4805 30.1017 57.8605 31.1817 59.1805 30.8617C60.1005 30.6417 60.8805 29.6817 60.8805 28.7617C60.8805 27.8717 60.1105 26.8917 59.2305 26.6717C58.6905 26.5317 58.5405 26.5417 57.9905 26.7117Z" fill="black"/>
<path d="M108.091 26.9117C107.481 27.1017 107.011 27.5917 106.821 28.2317C106.681 28.7117 106.681 28.8117 106.821 29.3017C106.931 29.6817 107.091 29.9417 107.361 30.1817C108.451 31.1617 110.131 30.6917 110.541 29.2917C110.681 28.8117 110.681 28.7117 110.541 28.2317C110.351 27.5817 109.881 27.1017 109.231 26.9017C108.661 26.7317 108.661 26.7317 108.091 26.9117Z" fill="black"/>
<path d="M158.531 27.0117C158.481 27.0317 158.311 27.0717 158.161 27.1017C157.821 27.1817 157.321 27.6017 157.111 27.9917C156.931 28.3517 156.911 29.1417 157.081 29.4717C157.421 30.1217 157.991 30.4817 158.681 30.4817C159.671 30.4817 160.401 29.7517 160.401 28.7617C160.401 27.8817 159.821 27.1917 158.931 27.0417C158.771 27.0117 158.591 27.0017 158.531 27.0117Z" fill="black"/>
<path d="M207.901 27.4617C206.601 28.2517 207.161 30.2617 208.681 30.2617C209.531 30.2617 210.181 29.6117 210.181 28.7617C210.181 27.9117 209.531 27.2617 208.681 27.2617C208.411 27.2617 208.101 27.3417 207.901 27.4617Z" fill="black"/>
<path d="M258.011 27.6617C257.161 28.1717 257.201 29.4517 258.071 29.9117C258.681 30.2217 259.431 30.0217 259.781 29.4317C260.481 28.2917 259.151 26.9617 258.011 27.6617Z" fill="black"/>
<path d="M308.231 27.7517C307.831 27.9317 307.631 28.2617 307.631 28.7717C307.631 29.1717 307.681 29.3117 307.911 29.5317C308.141 29.7617 308.271 29.8117 308.681 29.8117C309.091 29.8117 309.221 29.7617 309.451 29.5317C309.681 29.3017 309.731 29.1717 309.731 28.7617C309.731 28.3617 309.681 28.2117 309.471 28.0017C309.191 27.7217 308.581 27.6017 308.231 27.7517Z" fill="black"/>
<path d="M358.281 27.9917C357.761 28.2617 357.661 29.0317 358.091 29.4217C358.391 29.6917 359.021 29.6717 359.301 29.3817C359.601 29.0917 359.611 28.4417 359.331 28.1617C359.071 27.9017 358.591 27.8217 358.281 27.9917Z" fill="black"/>
<path d="M408.401 28.1617C408.281 28.2117 408.131 28.3717 408.081 28.5117C407.871 29.0617 408.381 29.5717 408.931 29.3617C409.451 29.1617 409.451 28.3617 408.931 28.1617C408.781 28.1017 408.661 28.0617 408.651 28.0717C408.641 28.0717 408.531 28.1117 408.401 28.1617Z" fill="black"/>
<path d="M32.3905 48.6217C31.2005 48.9417 30.1805 49.6217 29.4705 50.5617C27.2605 53.4917 28.5705 57.6317 32.0805 58.8217C32.9005 59.1017 34.6205 59.0717 35.4305 58.7717C39.1205 57.4217 40.1705 52.7817 37.4205 50.0217C36.1005 48.7117 34.1205 48.1517 32.3905 48.6217ZM35.7105 49.4917C38.1005 50.6717 39.0805 53.4817 37.9305 55.8217C37.3305 57.0617 36.0805 58.0817 34.8305 58.3617C34.1805 58.5117 33.0405 58.5117 32.4805 58.3617C31.1905 58.0217 30.0305 57.0417 29.4105 55.7817C29.0305 55.0217 29.0305 55.0117 29.0305 53.7617C29.0305 52.5117 29.0305 52.5017 29.4105 51.7417C29.8605 50.8317 30.6205 50.0317 31.4605 49.5817C32.2805 49.1417 32.6705 49.0617 33.9005 49.1017C34.9005 49.1217 35.0205 49.1517 35.7105 49.4917Z" fill="black"/>
<path d="M82.2205 49.2017C81.3705 49.4817 80.7805 49.8717 80.1105 50.6017C78.9505 51.8617 78.5905 53.6017 79.1305 55.2317C79.4205 56.0717 79.6105 56.4017 80.2205 57.0417C80.8205 57.6817 81.3605 58.0217 82.2105 58.3117C83.4005 58.7017 84.6805 58.6117 85.8605 58.0417C86.4205 57.7717 87.3805 56.8917 87.7605 56.2817C88.4605 55.1817 88.6605 53.6717 88.2705 52.4017C88.0105 51.5617 87.7805 51.1617 87.1505 50.4917C85.8505 49.1117 83.9905 48.6217 82.2205 49.2017ZM84.7305 49.6117C86.4105 50.0517 87.6105 51.3717 87.9105 53.1217C88.3605 55.7717 86.0405 58.2617 83.3305 58.0317C80.8105 57.8217 78.9705 55.3817 79.4705 52.9417C79.9805 50.5217 82.3705 49.0017 84.7305 49.6117Z" fill="black"/>
<path d="M132.581 49.6017C131.881 49.8017 131.291 50.1417 130.731 50.6717C129.001 52.3017 128.931 54.9417 130.561 56.6817C132.871 59.1517 136.971 58.1017 137.841 54.8117C138.211 53.4317 137.821 51.9317 136.801 50.8417C135.731 49.6917 134.041 49.2017 132.581 49.6017ZM135.331 50.3117C136.091 50.6817 136.761 51.3517 137.141 52.1117C137.401 52.6617 137.431 52.8017 137.431 53.7617C137.431 54.7217 137.401 54.8617 137.141 55.4117C136.761 56.1717 136.091 56.8417 135.331 57.2217C134.781 57.4817 134.641 57.5117 133.681 57.5117C132.721 57.5117 132.581 57.4817 132.031 57.2217C131.271 56.8417 130.601 56.1717 130.231 55.4217C129.861 54.6717 129.771 53.4817 130.011 52.6517C130.341 51.5417 131.391 50.4617 132.481 50.1117C132.771 50.0117 133.251 49.9717 133.841 49.9917C134.601 50.0117 134.831 50.0617 135.331 50.3117Z" fill="black"/>
<path d="M182.561 50.1517C181.831 50.3917 181.401 50.6617 180.901 51.2017C179.891 52.3017 179.641 53.7417 180.201 55.2317C180.351 55.6517 180.581 55.9817 181.021 56.4217C183.311 58.7117 187.151 57.2917 187.451 54.0517C187.701 51.4317 185.091 49.3517 182.561 50.1517ZM184.741 50.5717C185.311 50.7517 185.511 50.8817 186.041 51.4017C186.561 51.9317 186.691 52.1317 186.871 52.7017C186.991 53.0817 187.081 53.5517 187.081 53.7617C187.081 53.9717 186.991 54.4417 186.871 54.8217C186.691 55.3917 186.561 55.5917 186.041 56.1217C185.511 56.6417 185.311 56.7717 184.741 56.9517C184.361 57.0717 183.891 57.1617 183.681 57.1617C183.471 57.1617 183.001 57.0717 182.621 56.9517C182.051 56.7717 181.851 56.6417 181.321 56.1217C180.801 55.5917 180.671 55.3917 180.491 54.8217C180.371 54.4417 180.281 53.9717 180.281 53.7617C180.281 53.5517 180.371 53.0817 180.491 52.7017C180.671 52.1317 180.801 51.9317 181.321 51.4017C181.831 50.8917 182.061 50.7417 182.591 50.5717C183.421 50.3117 183.901 50.3117 184.741 50.5717Z" fill="black"/>
<path d="M232.931 50.5517C231.941 50.8217 231.141 51.4617 230.711 52.3517C230.481 52.8217 230.441 53.0417 230.441 53.7617C230.431 54.4917 230.471 54.6917 230.711 55.1717C231.031 55.8417 231.691 56.4817 232.361 56.7817C232.721 56.9517 233.021 57.0017 233.681 57.0017C234.341 57.0017 234.641 56.9517 235.001 56.7817C235.671 56.4817 236.331 55.8417 236.651 55.1717C236.891 54.6917 236.931 54.4817 236.931 53.7617C236.931 53.0417 236.891 52.8317 236.651 52.3517C236.331 51.6817 235.661 51.0317 235.001 50.7417C234.491 50.5217 233.421 50.4217 232.931 50.5517ZM234.831 51.1017C235.561 51.4417 235.931 51.7917 236.271 52.4817C236.851 53.6317 236.641 54.8917 235.731 55.8117C233.891 57.6417 230.781 56.3517 230.781 53.7617C230.781 52.6117 231.361 51.6917 232.401 51.1717C233.201 50.7717 234.071 50.7417 234.831 51.1017Z" fill="black"/>
<path d="M282.981 51.0517C282.171 51.3117 281.561 51.8117 281.201 52.5017C280.981 52.9217 280.931 53.1417 280.931 53.7617C280.931 54.4117 280.971 54.5817 281.231 55.0417C281.781 56.0417 282.561 56.5117 283.681 56.5117C284.821 56.5117 285.631 56.0217 286.161 55.0117C286.381 54.6017 286.431 54.3717 286.431 53.7617C286.431 53.1117 286.391 52.9417 286.131 52.4817C285.811 51.8917 285.461 51.5617 284.841 51.2417C284.401 51.0217 283.391 50.9117 282.981 51.0517ZM284.771 51.5617C286.271 52.3217 286.601 54.3117 285.421 55.5017C284.921 55.9917 284.401 56.2017 283.681 56.2017C282.961 56.2017 282.441 55.9917 281.941 55.5017C280.981 54.5317 280.981 52.9917 281.941 52.0217C282.691 51.2817 283.851 51.0917 284.771 51.5617Z" fill="black"/>
<path d="M332.971 51.5917C332.401 51.8017 332.001 52.1317 331.711 52.6417C331.481 53.0217 331.431 53.2317 331.431 53.7717C331.431 54.3317 331.481 54.5017 331.731 54.9217C331.921 55.2217 332.221 55.5217 332.521 55.7117C332.951 55.9717 333.111 56.0117 333.691 56.0017C334.261 56.0017 334.441 55.9517 334.841 55.7017C335.141 55.5217 335.441 55.2217 335.621 54.9217C335.871 54.5217 335.921 54.3417 335.921 53.7717C335.931 53.1917 335.891 53.0317 335.631 52.6017C335.071 51.7017 333.881 51.2517 332.971 51.5917ZM334.561 51.9517C336.101 52.7417 336.041 54.9517 334.461 55.6117C333.761 55.9017 332.841 55.7417 332.301 55.2317C331.521 54.5117 331.481 53.1617 332.211 52.3717C332.751 51.7917 333.851 51.5917 334.561 51.9517Z" fill="black"/>
<path d="M383.111 52.0717C382.361 52.2917 381.781 53.2617 381.931 54.0517C382.231 55.6617 384.341 56.0717 385.201 54.6817C385.681 53.9017 385.411 52.7417 384.641 52.2617C384.241 52.0217 383.551 51.9317 383.111 52.0717ZM384.561 52.4817C385.191 52.8717 385.421 53.7017 385.081 54.4017C384.591 55.4217 383.371 55.6417 382.581 54.8517C381.981 54.2417 381.981 53.2717 382.591 52.6717C383.121 52.1317 383.881 52.0617 384.561 52.4817Z" fill="black"/>
<path d="M433.091 52.6417C432.721 52.8417 432.381 53.3717 432.381 53.7417C432.381 54.6617 433.351 55.2817 434.201 54.9017C435.171 54.4617 435.201 53.0717 434.231 52.6217C433.801 52.4117 433.501 52.4217 433.091 52.6417ZM434.441 53.0017C434.721 53.2817 434.781 53.4217 434.781 53.7617C434.781 54.1017 434.721 54.2417 434.441 54.5217C434.161 54.8017 434.021 54.8617 433.681 54.8617C433.341 54.8617 433.201 54.8017 432.921 54.5217C432.641 54.2417 432.581 54.1017 432.581 53.7617C432.581 53.4217 432.641 53.2817 432.921 53.0017C433.201 52.7217 433.341 52.6617 433.681 52.6617C434.021 52.6617 434.161 52.7217 434.441 53.0017Z" fill="black"/>
<path d="M7.71052 75.7417C6.30052 76.2417 5.55052 77.3017 5.54052 78.7617C5.53052 80.0617 6.19052 81.1017 7.37052 81.6517C8.52052 82.1917 10.0105 81.9217 10.9305 81.0117C12.1305 79.8017 12.1305 77.7217 10.9305 76.5117C10.1105 75.7017 8.74052 75.3717 7.71052 75.7417Z" fill="black"/>
<path d="M57.6805 76.0617C56.6205 76.4217 55.7805 77.6217 55.7805 78.7617C55.7805 79.9317 56.6905 81.1817 57.7705 81.5017C58.9305 81.8417 59.8605 81.6117 60.6905 80.7717C61.1305 80.3417 61.3005 80.0817 61.4205 79.6717C61.7605 78.5117 61.5305 77.5817 60.6905 76.7517C59.8405 75.8917 58.8405 75.6617 57.6805 76.0617Z" fill="black"/>
<path d="M107.681 76.3717C105.581 77.3217 105.561 80.1417 107.631 81.1217C109.291 81.9117 111.271 80.6217 111.281 78.7617C111.281 77.3617 110.081 76.1617 108.681 76.1617C108.341 76.1617 107.961 76.2417 107.681 76.3717Z" fill="black"/>
<path d="M157.731 76.6517C156.261 77.3217 155.921 79.3217 157.091 80.4317C158.561 81.8217 160.981 80.7817 160.981 78.7617C160.981 78.1717 160.791 77.6717 160.401 77.2417C159.921 76.7117 159.381 76.4617 158.681 76.4617C158.361 76.4617 157.961 76.5417 157.731 76.6517Z" fill="black"/>
<path d="M207.801 76.9217C207.351 77.1517 206.801 77.8217 206.721 78.2317C206.551 79.1617 206.861 79.9417 207.601 80.4817C207.881 80.6717 208.061 80.7117 208.681 80.7117C209.521 80.7117 209.851 80.5517 210.361 79.8917C210.601 79.5717 210.631 79.4417 210.631 78.7617C210.631 78.0817 210.601 77.9517 210.361 77.6317C209.891 77.0217 209.511 76.8217 208.781 76.7817C208.321 76.7617 208.031 76.8017 207.801 76.9217Z" fill="black"/>
<path d="M258.531 77.0117C258.481 77.0317 258.311 77.0717 258.161 77.1017C257.821 77.1817 257.321 77.6017 257.111 77.9917C256.931 78.3517 256.911 79.1417 257.081 79.4717C257.421 80.1217 257.991 80.4817 258.681 80.4817C259.671 80.4817 260.401 79.7517 260.401 78.7617C260.401 77.8817 259.821 77.1917 258.931 77.0417C258.771 77.0117 258.591 77.0017 258.531 77.0117Z" fill="black"/>
<path d="M308.351 77.3517C308.201 77.3817 307.921 77.5317 307.731 77.6917C307.031 78.2517 307.061 79.2917 307.801 79.8917C308.581 80.5117 309.751 80.1517 310.061 79.1817C310.401 78.1517 309.431 77.1217 308.351 77.3517Z" fill="black"/>
<path d="M358.181 77.7317C357.231 78.2217 357.351 79.5617 358.381 79.8717C358.911 80.0317 359.451 79.7717 359.721 79.2217C359.891 78.8617 359.901 78.7917 359.771 78.4317C359.521 77.7217 358.811 77.4117 358.181 77.7317Z" fill="black"/>
<path d="M408.281 77.9917C407.761 78.2617 407.661 79.0317 408.091 79.4217C408.391 79.6917 409.021 79.6717 409.301 79.3817C409.601 79.0917 409.611 78.4417 409.331 78.1617C409.071 77.9017 408.591 77.8217 408.281 77.9917Z" fill="black"/>
<path d="M32.2305 97.1117C29.8505 97.6317 28.0405 99.2717 27.2005 101.652C26.9605 102.332 26.9305 102.552 26.9305 103.762C26.9305 104.982 26.9605 105.192 27.2105 105.912C27.9405 107.982 29.4205 109.472 31.4705 110.202C32.2705 110.492 32.4205 110.512 33.6805 110.512C34.8805 110.512 35.1105 110.482 35.7905 110.242C36.2105 110.092 36.8205 109.812 37.1605 109.622C40.1905 107.842 41.3405 103.942 39.7705 100.732C38.4305 97.9817 35.2405 96.4517 32.2305 97.1117ZM35.0005 97.8117C37.7105 98.3817 39.7805 100.962 39.7805 103.762C39.7805 107.102 37.0205 109.862 33.6805 109.862C30.3305 109.862 27.5805 107.112 27.5805 103.762C27.5805 101.932 28.5105 100.022 29.9205 98.9617C31.4105 97.8317 33.2005 97.4217 35.0005 97.8117Z" fill="black"/>
<path d="M82.4305 97.7217C79.9905 98.1917 78.0305 100.252 77.6005 102.792C77.4505 103.692 77.4505 103.832 77.6005 104.732C78.2205 108.392 81.7205 110.652 85.3105 109.712C86.9305 109.292 88.4305 108.042 89.2405 106.442C90.7105 103.542 89.4205 99.7217 86.4605 98.2717C85.1305 97.6117 83.8605 97.4417 82.4305 97.7217ZM85.0205 98.4117C86.8105 98.8817 88.3005 100.252 88.9205 102.012C89.1905 102.762 89.2505 104.372 89.0305 105.122C88.3205 107.592 86.1805 109.262 83.7305 109.262C80.6505 109.262 78.1805 106.822 78.1805 103.762C78.1805 101.282 79.8905 99.0617 82.2905 98.4217C83.0105 98.2317 84.3005 98.2217 85.0205 98.4117Z" fill="black"/>
<path d="M132.291 98.4117C131.481 98.6417 131.001 98.8817 130.311 99.4017C128.311 100.922 127.611 103.752 128.671 106.102C129.211 107.312 130.561 108.532 131.861 108.982C132.761 109.292 134.551 109.312 135.371 109.022C136.581 108.602 137.621 107.792 138.321 106.752C139.301 105.262 139.451 103.122 138.691 101.422C138.161 100.242 136.921 99.1017 135.621 98.6017C134.751 98.2617 133.141 98.1717 132.291 98.4117ZM135.811 99.3417C136.881 99.8717 137.641 100.642 138.161 101.732C138.531 102.502 138.531 102.522 138.531 103.772V105.022L138.111 105.882C137.061 108.002 134.821 109.072 132.541 108.562C130.861 108.182 129.261 106.582 128.881 104.902C128.741 104.282 128.741 103.242 128.881 102.622C129.241 101.012 130.631 99.5517 132.321 98.9917C132.591 98.9117 133.111 98.8717 133.851 98.8917C134.931 98.9217 135.001 98.9417 135.811 99.3417Z" fill="black"/>
<path d="M182.561 99.0217C181.711 99.2217 181.011 99.6117 180.321 100.282C179.361 101.202 178.881 102.252 178.821 103.582C178.761 104.972 179.291 106.252 180.341 107.262C182.261 109.112 185.111 109.102 187.041 107.242C189.011 105.352 189.071 102.382 187.181 100.422C186.551 99.7617 185.751 99.2717 184.981 99.0617C184.331 98.8817 183.221 98.8617 182.561 99.0217ZM185.521 99.8417C186.621 100.352 187.321 101.142 187.801 102.392C188.031 102.992 188.071 104.332 187.871 104.942C187.241 106.892 185.691 108.062 183.691 108.072C181.951 108.092 180.501 107.172 179.761 105.602C178.751 103.432 179.681 100.852 181.851 99.8417C182.991 99.3017 184.371 99.3017 185.521 99.8417Z" fill="black"/>
<path d="M232.371 99.7517C231.461 100.042 230.501 100.812 230.011 101.662C229.301 102.852 229.321 104.682 230.041 105.912C230.311 106.382 231.081 107.142 231.581 107.442C232.751 108.122 234.611 108.122 235.781 107.442C236.281 107.142 236.941 106.492 237.281 105.962C238.041 104.752 238.081 102.892 237.361 101.662C237.061 101.162 236.301 100.392 235.831 100.122C234.881 99.5617 233.451 99.4117 232.371 99.7517ZM235.251 100.362C236.061 100.732 236.721 101.402 237.111 102.242C237.381 102.832 237.421 103.022 237.421 103.762C237.421 104.502 237.381 104.692 237.111 105.282C236.711 106.142 236.061 106.792 235.201 107.192C234.611 107.462 234.421 107.502 233.681 107.502C232.941 107.502 232.751 107.462 232.161 107.192C231.301 106.792 230.651 106.142 230.251 105.282C229.981 104.692 229.941 104.502 229.941 103.762C229.941 103.022 229.981 102.832 230.251 102.242C230.751 101.172 231.741 100.342 232.851 100.062C233.491 99.9017 234.561 100.032 235.251 100.362Z" fill="black"/>
<path d="M282.771 100.292C281.731 100.592 280.871 101.332 280.401 102.352C280.181 102.812 280.131 103.062 280.131 103.762C280.131 104.522 280.161 104.682 280.451 105.272C280.841 106.062 281.471 106.672 282.261 107.042C283.071 107.422 284.281 107.422 285.101 107.042C285.881 106.682 286.521 106.062 286.901 105.282C287.181 104.712 287.221 104.532 287.231 103.772C287.231 102.992 287.201 102.842 286.911 102.252C286.311 101.042 285.211 100.292 283.911 100.202C283.511 100.182 283.041 100.222 282.771 100.292ZM285.001 100.882C286.161 101.412 286.831 102.472 286.831 103.762C286.831 104.362 286.781 104.622 286.571 105.072C286.021 106.242 284.971 106.912 283.681 106.912C283.081 106.912 282.821 106.862 282.371 106.652C280.961 105.992 280.201 104.392 280.611 102.952C281.181 101.012 283.201 100.062 285.001 100.882Z" fill="black"/>
<path d="M332.581 101.032C331.971 101.252 331.161 102.072 330.951 102.702C330.561 103.842 330.811 105.012 331.621 105.822C332.771 106.972 334.591 106.972 335.741 105.822C336.331 105.232 336.581 104.612 336.581 103.762C336.581 102.912 336.331 102.292 335.741 101.702C335.401 101.372 335.061 101.142 334.741 101.032C334.131 100.822 333.181 100.822 332.581 101.032ZM334.831 101.442C335.301 101.682 335.781 102.172 336.041 102.662C336.311 103.182 336.301 104.382 336.011 104.922C335.161 106.522 333.031 106.832 331.821 105.542C331.281 104.972 331.131 104.592 331.131 103.762C331.131 102.932 331.281 102.552 331.821 101.982C332.131 101.642 332.521 101.402 332.981 101.252C333.391 101.112 334.401 101.222 334.831 101.442Z" fill="black"/>
<path d="M383.101 101.552C382.571 101.692 382.011 102.122 381.721 102.622C381.491 103.012 381.441 103.222 381.441 103.762C381.431 104.332 381.471 104.492 381.731 104.922C381.921 105.222 382.221 105.522 382.521 105.712C382.941 105.962 383.111 106.012 383.681 106.012C384.251 106.012 384.421 105.962 384.841 105.712C385.141 105.522 385.441 105.222 385.631 104.922C385.881 104.502 385.931 104.332 385.931 103.762C385.931 103.192 385.881 103.022 385.631 102.602C385.101 101.752 384.051 101.312 383.101 101.552ZM384.461 101.912C385.511 102.352 385.971 103.562 385.491 104.612C384.771 106.182 382.501 106.142 381.831 104.542C381.541 103.842 381.701 102.932 382.211 102.372C382.731 101.812 383.721 101.612 384.461 101.912Z" fill="black"/>
<path d="M432.901 102.322C431.911 102.832 431.791 104.432 432.711 105.082C433.121 105.382 433.941 105.442 434.421 105.212C435.451 104.722 435.591 103.102 434.651 102.442C434.241 102.152 433.361 102.092 432.901 102.322ZM434.451 102.562C435.321 103.082 435.281 104.542 434.391 105.012C433.411 105.512 432.281 104.852 432.281 103.782C432.281 102.932 432.841 102.362 433.681 102.362C433.951 102.362 434.261 102.442 434.451 102.562Z" fill="black"/>
<path d="M7.71057 124.912C6.12056 125.342 5.06056 126.502 4.76056 128.162C4.54056 129.322 4.99056 130.682 5.88056 131.562C6.76057 132.452 8.12057 132.902 9.28057 132.682C11.0606 132.352 12.2706 131.142 12.6006 129.362C12.8206 128.212 12.3706 126.842 11.5006 125.972C10.9406 125.412 10.4306 125.122 9.61057 124.912C8.91057 124.732 8.40057 124.732 7.71057 124.912Z" fill="black"/>
<path d="M57.5106 125.342C56.5106 125.702 55.8006 126.352 55.3506 127.332C55.1706 127.722 55.1306 127.992 55.1306 128.762C55.1306 129.582 55.1706 129.792 55.4006 130.282C55.7406 131.012 56.4306 131.702 57.1606 132.042C57.6506 132.272 57.8606 132.312 58.6806 132.312C59.5006 132.312 59.7106 132.272 60.2006 132.042C60.9306 131.702 61.6206 131.012 61.9606 130.282C62.1906 129.792 62.2306 129.582 62.2306 128.762C62.2306 127.942 62.1906 127.732 61.9606 127.242C61.6206 126.512 60.9206 125.812 60.2006 125.482C59.4406 125.132 58.2606 125.072 57.5106 125.342Z" fill="black"/>
<path d="M107.901 125.612C107.161 125.822 106.881 125.982 106.351 126.522C105.121 127.762 105.141 129.792 106.391 131.052C108.431 133.092 111.911 131.652 111.911 128.762C111.911 126.662 109.881 125.062 107.901 125.612Z" fill="black"/>
<path d="M157.751 126.022C157.031 126.242 156.151 127.132 155.941 127.852C155.591 129.032 155.831 129.942 156.681 130.782C157.111 131.202 157.391 131.392 157.791 131.502C158.931 131.842 159.831 131.622 160.681 130.782C161.141 130.332 161.301 130.092 161.421 129.672C161.771 128.492 161.531 127.582 160.681 126.742C159.831 125.912 158.881 125.672 157.751 126.022Z" fill="black"/>
<path d="M207.731 126.412C207.211 126.602 206.431 127.412 206.291 127.922C206.001 128.952 206.211 129.822 206.921 130.522C207.621 131.232 208.491 131.442 209.511 131.152C210.051 131.002 210.931 130.132 211.071 129.612C211.361 128.562 211.151 127.702 210.441 127.002C209.881 126.432 209.451 126.262 208.631 126.262C208.361 126.272 207.951 126.332 207.731 126.412Z" fill="black"/>
<path d="M257.991 126.712C257.421 126.892 256.831 127.472 256.631 128.042C256.441 128.612 256.441 128.922 256.631 129.472C257.001 130.502 258.081 131.102 259.141 130.872C260.091 130.652 260.881 129.702 260.881 128.752C260.881 127.902 260.171 126.952 259.341 126.712C258.751 126.532 258.571 126.532 257.991 126.712Z" fill="black"/>
<path d="M307.931 127.102C307.771 127.182 307.511 127.362 307.361 127.522C306.281 128.682 307.101 130.562 308.671 130.562C310.261 130.562 311.081 128.682 310.001 127.522C309.491 126.982 308.601 126.802 307.931 127.102Z" fill="black"/>
<path d="M358.191 127.392C358.001 127.452 357.721 127.682 357.551 127.882C356.931 128.662 357.291 129.832 358.261 130.142C359.561 130.562 360.661 128.992 359.841 127.912C359.691 127.722 359.491 127.522 359.401 127.472C359.081 127.302 358.531 127.262 358.191 127.392Z" fill="black"/>
<path d="M408.231 127.752C407.831 127.932 407.631 128.262 407.631 128.772C407.631 129.172 407.681 129.312 407.911 129.532C408.141 129.762 408.271 129.812 408.681 129.812C409.091 129.812 409.221 129.762 409.451 129.532C409.681 129.302 409.731 129.172 409.731 128.762C409.731 128.362 409.681 128.212 409.471 128.002C409.191 127.722 408.581 127.602 408.231 127.752Z" fill="black"/>
<path d="M32.2805 145.522C31.5205 145.672 30.5305 146.032 29.7305 146.442C28.9905 146.822 28.6505 147.092 27.8305 147.912C27.0105 148.732 26.7405 149.072 26.3605 149.812C25.5805 151.332 25.4305 151.952 25.4305 153.762C25.4305 155.562 25.5805 156.182 26.3605 157.712C26.7405 158.452 27.0105 158.792 27.8305 159.622C28.6605 160.452 28.9805 160.702 29.7305 161.082C31.2605 161.872 31.8805 162.012 33.6805 162.012C35.4805 162.012 36.1005 161.862 37.6305 161.082C38.3705 160.702 38.7105 160.442 39.5305 159.612C40.3605 158.792 40.6205 158.452 41.0005 157.712C41.7805 156.182 41.9305 155.562 41.9305 153.762C41.9305 151.962 41.7905 151.342 41.0005 149.812C40.6205 149.062 40.3705 148.742 39.5405 147.912C38.7105 147.092 38.3705 146.822 37.6305 146.442C36.1805 145.702 35.5605 145.542 33.9305 145.512C33.1605 145.492 32.4205 145.502 32.2805 145.522ZM35.4505 146.522C37.5905 147.002 39.5405 148.622 40.4805 150.702C40.9305 151.682 41.1105 152.562 41.1105 153.762C41.1105 154.962 40.9305 155.842 40.4805 156.822C39.5305 158.912 37.6305 160.492 35.4005 161.032C34.5205 161.242 32.8405 161.242 31.9605 161.032C29.7305 160.492 27.8305 158.912 26.8805 156.822C26.4305 155.842 26.2505 154.962 26.2505 153.762C26.2505 152.092 26.6805 150.742 27.6205 149.432C29.3905 146.942 32.3905 145.822 35.4505 146.522Z" fill="black"/>
<path d="M81.8305 146.452C79.2905 147.142 77.3805 148.922 76.5105 151.412C76.2505 152.152 76.2305 152.322 76.2305 153.762C76.2305 155.202 76.2505 155.372 76.5105 156.112C76.9105 157.262 77.5105 158.202 78.3705 159.072C79.2405 159.932 80.1805 160.532 81.3305 160.932C82.0705 161.192 82.2405 161.212 83.6805 161.212C85.1205 161.212 85.2905 161.192 86.0305 160.932C87.1805 160.532 88.1205 159.932 88.9905 159.072C89.8505 158.202 90.4505 157.262 90.8505 156.112C91.1105 155.372 91.1305 155.202 91.1305 153.762C91.1305 152.322 91.1105 152.152 90.8505 151.412C90.4505 150.262 89.8505 149.322 88.9905 148.452C88.1205 147.582 87.1705 146.992 86.0305 146.602C84.9405 146.232 82.9105 146.162 81.8305 146.452ZM85.0905 147.162C86.2605 147.392 87.7205 148.202 88.5505 149.072C89.3605 149.942 90.0205 151.162 90.2905 152.342C90.4505 153.042 90.4205 154.632 90.2405 155.372C89.6405 157.742 87.6905 159.702 85.3305 160.312C84.5505 160.512 82.8205 160.512 82.0305 160.312C79.6605 159.702 77.7405 157.782 77.1305 155.412C76.9305 154.612 76.9305 152.892 77.1305 152.112C78.0605 148.582 81.5105 146.442 85.0905 147.162Z" fill="black"/>
<path d="M132.881 147.072C129.521 147.452 126.961 150.322 126.961 153.702C126.961 156.372 128.381 158.672 130.731 159.812C131.741 160.292 132.571 160.482 133.691 160.482C137.441 160.482 140.401 157.522 140.401 153.772C140.411 149.722 136.911 146.612 132.881 147.072ZM135.541 148.022C137.081 148.532 138.391 149.672 139.061 151.072C139.531 152.042 139.701 152.792 139.691 153.792C139.681 155.452 139.091 156.862 137.931 158.012C136.781 159.172 135.371 159.762 133.711 159.772C131.401 159.792 129.271 158.492 128.301 156.452C127.831 155.482 127.671 154.802 127.671 153.752C127.651 150.642 130.061 148.022 133.181 147.742C133.741 147.692 135.011 147.842 135.541 148.022Z" fill="black"/>
<path d="M182.581 147.912C179.421 148.492 177.271 151.592 177.831 154.782C178.391 158.012 181.471 160.182 184.711 159.612C188.131 159.012 190.301 155.622 189.431 152.242C188.661 149.282 185.621 147.352 182.581 147.912ZM185.091 148.622C186.881 149.152 188.291 150.562 188.821 152.352C189.021 153.042 189.031 154.342 188.831 155.112C188.361 156.892 186.911 158.372 185.091 158.902C184.401 159.102 183.101 159.112 182.331 158.912C180.521 158.442 179.001 156.922 178.531 155.112C178.211 153.862 178.391 152.392 179.011 151.222C179.631 150.032 180.981 148.972 182.291 148.622C183.021 148.422 184.411 148.422 185.091 148.622Z" fill="black"/>
<path d="M232.631 148.712C231.801 148.892 231.231 149.162 230.561 149.672C227.261 152.192 228.131 157.302 232.091 158.672C232.991 158.982 234.381 158.982 235.281 158.672C238.341 157.622 239.721 154.202 238.231 151.372C237.161 149.342 234.821 148.232 232.631 148.712ZM235.301 149.452C237.171 150.182 238.371 152.022 238.261 153.992C238.101 156.572 235.981 158.492 233.451 158.342C230.871 158.182 228.951 156.062 229.101 153.532C229.221 151.582 230.391 150.042 232.261 149.392C233.131 149.082 234.421 149.112 235.301 149.452Z" fill="black"/>
<path d="M282.731 149.502C281.881 149.712 281.301 150.032 280.681 150.622C278.931 152.292 278.851 154.982 280.501 156.722C281.611 157.892 283.111 158.372 284.611 158.022C285.501 157.812 286.001 157.542 286.661 156.932C287.801 155.842 288.261 154.412 287.941 152.902C287.751 151.972 287.481 151.452 286.821 150.762C286.161 150.072 285.501 149.702 284.611 149.512C283.801 149.342 283.401 149.332 282.731 149.502ZM285.321 150.242C286.151 150.632 286.811 151.292 287.211 152.142C287.501 152.752 287.531 152.902 287.531 153.762C287.531 154.622 287.501 154.772 287.211 155.382C286.811 156.232 286.151 156.892 285.301 157.292C284.691 157.582 284.541 157.612 283.681 157.612C282.821 157.612 282.671 157.582 282.061 157.292C281.211 156.892 280.551 156.232 280.151 155.382C279.861 154.772 279.831 154.622 279.831 153.762C279.831 152.902 279.861 152.752 280.151 152.142C280.661 151.062 281.641 150.242 282.751 149.962C283.461 149.782 284.611 149.912 285.321 150.242Z" fill="black"/>
<path d="M332.901 150.262C331.871 150.482 330.881 151.302 330.401 152.342C330.191 152.812 330.141 153.062 330.141 153.762C330.131 154.532 330.161 154.682 330.451 155.272C330.841 156.062 331.471 156.672 332.261 157.042C332.741 157.262 332.971 157.312 333.681 157.312C334.391 157.312 334.621 157.262 335.101 157.042C335.891 156.672 336.521 156.062 336.911 155.272C337.191 154.692 337.231 154.522 337.231 153.762C337.231 153.002 337.191 152.832 336.911 152.252C336.161 150.742 334.511 149.922 332.901 150.262ZM335.001 150.882C336.161 151.412 336.831 152.472 336.831 153.762C336.831 154.362 336.781 154.622 336.571 155.072C336.021 156.242 334.971 156.912 333.681 156.912C333.081 156.912 332.821 156.862 332.371 156.652C330.961 155.992 330.201 154.392 330.611 152.952C331.181 151.012 333.201 150.062 335.001 150.882Z" fill="black"/>
<path d="M382.981 151.052C382.171 151.312 381.561 151.812 381.201 152.502C380.981 152.922 380.931 153.142 380.931 153.762C380.931 154.412 380.971 154.582 381.231 155.042C381.781 156.042 382.561 156.512 383.681 156.512C384.821 156.512 385.631 156.022 386.161 155.012C386.381 154.602 386.431 154.372 386.431 153.762C386.431 153.112 386.391 152.942 386.131 152.482C385.811 151.892 385.461 151.562 384.841 151.242C384.401 151.022 383.391 150.912 382.981 151.052ZM384.771 151.562C385.641 152.002 386.121 152.782 386.121 153.762C386.121 155.172 385.091 156.202 383.681 156.202C382.281 156.202 381.241 155.162 381.241 153.762C381.241 151.932 383.161 150.732 384.771 151.562Z" fill="black"/>
<path d="M433.001 151.872C432.821 151.922 432.501 152.142 432.291 152.352C431.381 153.262 431.551 154.792 432.651 155.472C433.221 155.832 434.191 155.812 434.751 155.442C435.371 155.032 435.631 154.542 435.631 153.762C435.631 152.992 435.371 152.492 434.781 152.102C434.351 151.812 433.531 151.712 433.001 151.872ZM434.491 152.212C434.871 152.412 435.261 152.912 435.381 153.362C435.701 154.562 434.471 155.782 433.261 155.452C432.711 155.312 432.131 154.732 431.991 154.182C431.611 152.772 433.181 151.542 434.491 152.212Z" fill="black"/>
<path d="M7.98054 174.022C5.12054 174.572 3.37054 177.212 4.07054 179.902C4.41054 181.212 5.11054 182.162 6.17054 182.802C7.03054 183.312 7.71054 183.502 8.68054 183.502C9.66054 183.502 10.3305 183.312 11.2005 182.792C12.3305 182.112 13.0505 181.042 13.3605 179.582C13.5205 178.812 13.5205 178.712 13.3605 177.942C13.2605 177.502 13.0705 176.892 12.9305 176.612C12.4105 175.552 11.3805 174.662 10.2005 174.252C9.63054 174.052 8.45054 173.932 7.98054 174.022Z" fill="black"/>
<path d="M57.4305 174.592C56.2405 174.992 55.2705 175.832 54.7505 176.932C54.4505 177.572 54.4305 177.672 54.4305 178.762C54.4305 179.852 54.4505 179.952 54.7505 180.592C55.1705 181.482 55.9605 182.272 56.8505 182.692C57.4905 182.992 57.5905 183.012 58.6805 183.012C59.7705 183.012 59.8705 182.992 60.5105 182.692C61.4005 182.272 62.1905 181.482 62.6105 180.592C62.9105 179.952 62.9305 179.852 62.9305 178.762C62.9305 177.672 62.9105 177.572 62.6105 176.932C62.1905 176.042 61.4005 175.252 60.5105 174.832C59.9105 174.552 59.7105 174.512 58.8305 174.492C58.2005 174.472 57.6805 174.512 57.4305 174.592Z" fill="black"/>
<path d="M107.631 174.992C106.461 175.382 105.651 176.092 105.151 177.142C104.861 177.752 104.831 177.902 104.831 178.762C104.831 179.622 104.861 179.772 105.151 180.382C105.551 181.232 106.211 181.892 107.061 182.292C107.671 182.582 107.821 182.612 108.681 182.612C109.541 182.612 109.691 182.582 110.301 182.292C111.151 181.892 111.811 181.232 112.211 180.382C112.501 179.772 112.531 179.622 112.531 178.762C112.531 177.902 112.501 177.752 112.211 177.142C111.571 175.772 110.321 174.952 108.831 174.892C108.351 174.872 107.871 174.912 107.631 174.992Z" fill="black"/>
<path d="M157.781 175.422C157.041 175.622 156.271 176.162 155.841 176.792C155.501 177.302 155.181 178.242 155.181 178.762C155.181 179.282 155.501 180.222 155.841 180.732C156.571 181.792 157.981 182.412 159.201 182.182C160.001 182.032 160.591 181.732 161.121 181.202C161.991 180.342 162.331 179.152 162.041 177.992C161.731 176.712 160.781 175.732 159.531 175.412C158.811 175.232 158.501 175.232 157.781 175.422Z" fill="black"/>
<path d="M207.781 175.852C207.051 176.092 206.331 176.702 205.951 177.412C205.771 177.742 205.731 177.982 205.731 178.762C205.731 179.842 205.881 180.232 206.551 180.892C207.211 181.562 207.601 181.712 208.681 181.712C209.761 181.712 210.151 181.562 210.811 180.892C211.481 180.232 211.631 179.842 211.631 178.762C211.631 177.682 211.481 177.292 210.811 176.632C210.211 176.022 209.751 175.832 208.831 175.802C208.391 175.782 207.921 175.802 207.781 175.852Z" fill="black"/>
<path d="M257.681 176.372C255.581 177.322 255.561 180.142 257.631 181.122C259.291 181.912 261.271 180.622 261.281 178.762C261.281 177.362 260.081 176.162 258.681 176.162C258.341 176.162 257.961 176.242 257.681 176.372Z" fill="black"/>
<path d="M307.931 176.722C307.151 177.012 306.481 177.952 306.481 178.772C306.481 179.232 306.771 179.902 307.151 180.282C307.521 180.662 308.201 180.962 308.681 180.962C309.161 180.962 309.841 180.662 310.211 180.282C310.591 179.902 310.881 179.232 310.881 178.772C310.881 177.932 310.211 177.002 309.391 176.712C308.861 176.532 308.461 176.532 307.931 176.722Z" fill="black"/>
<path d="M358.531 177.012C358.481 177.032 358.311 177.072 358.161 177.102C357.821 177.182 357.321 177.602 357.111 177.992C356.931 178.352 356.911 179.142 357.081 179.472C357.421 180.122 357.991 180.482 358.681 180.482C359.671 180.482 360.401 179.752 360.401 178.762C360.401 177.882 359.821 177.192 358.931 177.042C358.771 177.012 358.591 177.002 358.531 177.012Z" fill="black"/>
<path d="M408.011 177.662C407.161 178.172 407.201 179.452 408.071 179.912C408.681 180.222 409.431 180.022 409.781 179.432C410.481 178.292 409.151 176.962 408.011 177.662Z" fill="black"/>
<path d="M32.7105 193.972C29.0505 194.292 25.7705 196.832 24.4405 200.382C23.6705 202.422 23.6705 205.102 24.4405 207.142C25.7805 210.722 29.0105 213.202 32.7605 213.552C34.6205 213.722 36.3405 213.402 38.0305 212.562C41.1005 211.042 43.1605 208.062 43.4705 204.682C43.8905 200.132 41.1105 195.872 36.7805 194.422C35.5005 194.002 34.1605 193.852 32.7105 193.972ZM35.9305 195.212C38.4405 195.902 40.5605 197.702 41.6705 200.082C42.3005 201.422 42.4205 202.002 42.4305 203.712C42.4305 205.302 42.3505 205.822 41.9005 206.962C41.5105 207.962 40.9005 208.912 40.1405 209.732C39.3005 210.632 38.4705 211.242 37.3605 211.752C36.0005 212.392 35.4505 212.502 33.6805 212.502C31.9205 212.502 31.3605 212.392 30.0105 211.762C28.0405 210.842 26.6005 209.412 25.6905 207.442C25.0505 206.082 24.9405 205.532 24.9405 203.762C24.9405 201.992 25.0505 201.442 25.6905 200.082C26.3605 198.642 27.4605 197.322 28.7105 196.472C29.6705 195.812 31.1905 195.212 32.3305 195.022C32.9505 194.922 35.3305 195.052 35.9305 195.212Z" fill="black"/>
<path d="M81.9905 195.012C80.1105 195.442 78.8605 196.092 77.5405 197.352C76.3505 198.492 75.6105 199.712 75.1105 201.332C74.8705 202.132 74.8405 202.352 74.8405 203.762C74.8505 205.152 74.8705 205.402 75.1105 206.192C76.0605 209.292 78.3305 211.522 81.4305 212.382C82.0905 212.562 82.4805 212.602 83.7305 212.602C85.0705 212.602 85.3205 212.572 86.1105 212.332C87.7005 211.842 88.8905 211.132 90.0105 209.992C91.1005 208.882 91.7705 207.742 92.2505 206.192C92.4905 205.402 92.5205 205.152 92.5205 203.812C92.5205 202.562 92.4805 202.172 92.3005 201.512C91.4405 198.412 89.1805 196.112 86.1105 195.202C85.0005 194.872 83.0005 194.782 81.9905 195.012ZM85.7805 196.062C86.1905 196.182 86.9305 196.482 87.4305 196.742C88.1605 197.112 88.5105 197.382 89.2805 198.162C90.0605 198.932 90.3305 199.282 90.7105 200.022C91.4005 201.382 91.6205 202.252 91.6205 203.762C91.6205 205.262 91.4105 206.122 90.7105 207.502C90.3305 208.242 90.0605 208.592 89.2805 209.362C88.5105 210.142 88.1605 210.412 87.4205 210.792C86.0505 211.492 85.1905 211.702 83.6805 211.702C82.1705 211.702 81.3105 211.492 79.9405 210.792C79.2005 210.412 78.8505 210.142 78.0805 209.362C77.3005 208.592 77.0305 208.242 76.6605 207.512C76.0205 206.262 75.7805 205.352 75.7305 204.012C75.6505 201.642 76.4805 199.632 78.2205 197.992C79.4105 196.852 80.8905 196.112 82.4605 195.862C83.3105 195.732 84.9205 195.832 85.7805 196.062Z" fill="black"/>
<path d="M132.261 195.912C130.601 196.232 129.261 196.952 128.011 198.222C127.211 199.032 127.021 199.302 126.591 200.182C125.931 201.532 125.741 202.322 125.741 203.762C125.741 205.222 125.931 206.002 126.601 207.362C127.051 208.282 127.231 208.532 128.071 209.372C128.911 210.212 129.161 210.392 130.081 210.842C131.441 211.512 132.221 211.702 133.681 211.702C135.131 211.702 135.911 211.512 137.281 210.842C138.211 210.392 138.431 210.232 139.281 209.372C140.121 208.532 140.311 208.282 140.761 207.362C141.431 206.002 141.621 205.222 141.621 203.762C141.621 202.302 141.431 201.522 140.761 200.162C140.311 199.242 140.131 198.992 139.291 198.152C138.451 197.312 138.201 197.132 137.281 196.682C136.701 196.402 135.941 196.102 135.581 196.012C134.611 195.782 133.171 195.742 132.261 195.912ZM135.971 197.012C138.021 197.712 139.741 199.422 140.431 201.472C140.761 202.482 140.881 204.082 140.681 205.092C139.971 208.732 136.661 211.192 132.931 210.852C130.301 210.612 127.901 208.712 126.981 206.172C125.681 202.602 127.511 198.532 131.021 197.152C132.131 196.722 132.461 196.672 133.881 196.702C134.941 196.722 135.261 196.772 135.971 197.012Z" fill="black"/>
<path d="M181.901 196.962C179.461 197.602 177.501 199.582 176.881 202.022C175.921 205.752 178.211 209.612 181.941 210.562C185.671 211.522 189.531 209.232 190.481 205.502C191.441 201.772 189.151 197.912 185.421 196.962C184.401 196.702 182.901 196.702 181.901 196.962ZM185.581 197.752C187.451 198.342 188.951 199.832 189.661 201.782C189.891 202.422 189.931 202.662 189.931 203.762C189.931 204.862 189.891 205.102 189.661 205.742C189.301 206.752 188.841 207.472 188.121 208.202C187.391 208.922 186.661 209.382 185.661 209.742C185.021 209.972 184.771 210.002 183.681 210.002C182.571 210.012 182.351 209.982 181.701 209.742C180.691 209.382 179.971 208.922 179.241 208.202C178.081 207.042 177.501 205.732 177.411 204.062C177.251 201.072 179.271 198.362 182.241 197.612C183.051 197.412 184.711 197.472 185.581 197.752Z" fill="black"/>
<path d="M232.531 197.762C231.451 197.992 230.301 198.582 229.491 199.322C228.921 199.822 228.261 200.872 227.921 201.762C227.671 202.432 227.641 202.642 227.641 203.762C227.641 204.882 227.671 205.092 227.921 205.762C228.611 207.602 229.831 208.822 231.681 209.522C232.361 209.772 232.551 209.802 233.681 209.802C234.811 209.802 235.001 209.772 235.681 209.522C237.531 208.822 238.751 207.602 239.441 205.762C239.691 205.092 239.721 204.882 239.721 203.762C239.721 202.632 239.691 202.442 239.441 201.762C238.511 199.302 236.471 197.802 233.931 197.702C233.381 197.682 232.751 197.712 232.531 197.762ZM235.181 198.532C236.951 199.012 238.411 200.482 238.931 202.302C239.161 203.082 239.161 204.432 238.941 205.212C238.401 207.052 236.981 208.482 235.151 209.012C234.811 209.112 234.221 209.172 233.681 209.172C232.141 209.172 230.901 208.672 229.841 207.602C228.771 206.542 228.271 205.302 228.271 203.762C228.271 203.222 228.331 202.632 228.431 202.292C229.271 199.382 232.241 197.722 235.181 198.532Z" fill="black"/>
<path d="M282.631 198.702C281.801 198.892 281.231 199.162 280.561 199.672C277.711 201.842 277.891 206.122 280.901 208.102C282.541 209.172 284.821 209.172 286.461 208.102C288.001 207.092 288.821 205.582 288.811 203.762C288.801 202.312 288.351 201.172 287.371 200.162C286.181 198.942 284.241 198.342 282.631 198.702ZM285.301 199.452C287.171 200.182 288.371 202.022 288.261 203.992C288.101 206.572 285.981 208.492 283.451 208.342C280.871 208.182 278.951 206.062 279.101 203.532C279.221 201.582 280.391 200.042 282.261 199.392C283.131 199.082 284.421 199.112 285.301 199.452Z" fill="black"/>
<path d="M332.371 199.752C331.461 200.042 330.501 200.812 330.011 201.662C329.301 202.852 329.321 204.682 330.041 205.912C330.311 206.382 331.081 207.142 331.581 207.442C332.751 208.122 334.611 208.122 335.781 207.442C336.281 207.142 336.941 206.492 337.281 205.962C338.041 204.752 338.081 202.892 337.361 201.662C337.061 201.162 336.301 200.392 335.831 200.122C334.881 199.562 333.451 199.412 332.371 199.752ZM335.251 200.362C336.061 200.732 336.721 201.402 337.111 202.242C337.381 202.832 337.421 203.022 337.421 203.762C337.421 204.502 337.381 204.692 337.111 205.282C336.711 206.142 336.061 206.792 335.201 207.192C334.611 207.462 334.421 207.502 333.681 207.502C332.941 207.502 332.751 207.462 332.181 207.192C331.231 206.742 330.751 206.282 330.311 205.392C329.971 204.692 329.941 204.572 329.941 203.772C329.941 203.022 329.981 202.832 330.251 202.252C330.421 201.882 330.721 201.412 330.921 201.192C331.331 200.732 332.281 200.192 332.901 200.062C333.601 199.912 334.561 200.032 335.251 200.362Z" fill="black"/>
<path d="M382.581 200.662C380.271 201.522 379.641 204.502 381.441 206.152C382.131 206.802 382.671 207.002 383.681 207.002C384.341 207.002 384.641 206.952 385.001 206.782C385.671 206.482 386.331 205.842 386.651 205.172C386.891 204.692 386.931 204.482 386.931 203.762C386.931 203.042 386.891 202.832 386.651 202.352C386.331 201.682 385.661 201.032 385.001 200.742C384.311 200.442 383.271 200.402 382.581 200.662ZM384.961 201.172C386.701 202.042 387.121 204.212 385.841 205.732C385.691 205.902 385.301 206.192 384.961 206.352C383.501 207.082 381.821 206.512 381.091 205.042C380.511 203.892 380.721 202.632 381.631 201.712C382.241 201.112 382.801 200.882 383.691 200.872C384.231 200.862 384.451 200.912 384.961 201.172Z" fill="black"/>
<path d="M433.061 201.502C431.011 202.042 430.721 204.872 432.611 205.852C433.961 206.542 435.651 205.752 435.971 204.262C436.341 202.542 434.771 201.052 433.061 201.502ZM434.321 201.782C435.191 202.042 435.891 203.142 435.751 204.022C435.551 205.252 434.351 206.082 433.211 205.782C431.611 205.352 431.071 203.472 432.211 202.322C432.831 201.712 433.501 201.542 434.321 201.782Z" fill="black"/>
<path d="M8.03056 223.222C6.78056 223.412 5.64056 223.982 4.77056 224.852C3.69056 225.932 3.14056 227.252 3.14056 228.762C3.14056 230.272 3.69056 231.592 4.77056 232.672C5.85056 233.752 7.17056 234.302 8.68056 234.302C10.1906 234.302 11.5106 233.752 12.5906 232.672C13.6706 231.592 14.2206 230.272 14.2206 228.762C14.2206 226.292 12.6006 224.142 10.2106 223.432C9.64056 223.262 8.51056 223.152 8.03056 223.222Z" fill="black"/>
<path d="M58.0305 223.732C57.4605 223.802 56.4905 224.172 55.9105 224.552C54.7605 225.292 54.0005 226.462 53.7105 227.942C53.5605 228.692 53.5605 228.832 53.7105 229.582C54.3905 233.032 57.8605 234.782 60.9805 233.242C62.3405 232.582 63.3305 231.222 63.6505 229.582C63.8005 228.832 63.8005 228.692 63.6505 227.942C63.2705 225.992 62.0405 224.562 60.2505 223.972C59.6505 223.772 58.6405 223.662 58.0305 223.732Z" fill="black"/>
<path d="M107.981 224.262C105.941 224.632 104.511 226.102 104.171 228.182C103.861 230.112 105.131 232.272 106.981 232.972C108.541 233.562 110.161 233.352 111.431 232.382C113.561 230.762 113.831 227.662 112.011 225.652C111.081 224.622 109.321 224.012 107.981 224.262Z" fill="black"/>
<path d="M158.061 224.772C156.391 225.002 154.931 226.472 154.701 228.162C154.321 230.872 156.571 233.122 159.281 232.742C160.981 232.512 162.431 231.062 162.661 229.362C162.881 227.792 162.221 226.272 160.951 225.432C160.071 224.852 159.121 224.632 158.061 224.772Z" fill="black"/>
<path d="M208.101 225.272C206.201 225.582 204.901 227.402 205.201 229.322C205.571 231.672 208.161 232.992 210.291 231.902C212.821 230.622 212.831 226.902 210.301 225.622C209.881 225.402 209.641 225.342 208.831 225.222C208.721 225.202 208.391 225.232 208.101 225.272Z" fill="black"/>
<path d="M257.781 225.852C257.051 226.092 256.331 226.702 255.951 227.412C255.771 227.742 255.731 227.982 255.731 228.762C255.731 229.842 255.881 230.232 256.551 230.892C257.211 231.562 257.601 231.712 258.681 231.712C259.761 231.712 260.151 231.562 260.811 230.892C261.481 230.232 261.631 229.842 261.631 228.762C261.631 227.682 261.481 227.292 260.811 226.632C260.211 226.022 259.751 225.832 258.831 225.802C258.391 225.782 257.921 225.802 257.781 225.852Z" fill="black"/>
<path d="M307.731 226.412C307.211 226.602 306.431 227.412 306.291 227.922C306.151 228.422 306.151 229.102 306.291 229.612C306.431 230.132 307.311 231.002 307.851 231.152C308.871 231.442 309.721 231.232 310.441 230.522C311.151 229.802 311.361 228.962 311.071 227.912C310.931 227.392 310.051 226.522 309.511 226.372C308.991 226.222 308.211 226.242 307.731 226.412Z" fill="black"/>
<path d="M357.801 226.922C357.351 227.152 356.801 227.822 356.721 228.232C356.551 229.162 356.861 229.942 357.601 230.482C357.881 230.672 358.061 230.712 358.681 230.712C359.521 230.712 359.851 230.552 360.361 229.892C360.601 229.572 360.631 229.442 360.631 228.762C360.631 228.082 360.601 227.952 360.361 227.632C359.891 227.022 359.511 226.822 358.781 226.782C358.321 226.762 358.031 226.802 357.801 226.922Z" fill="black"/>
<path d="M407.901 227.462C406.601 228.252 407.161 230.262 408.681 230.262C409.531 230.262 410.181 229.612 410.181 228.762C410.181 227.912 409.531 227.262 408.681 227.262C408.411 227.262 408.101 227.342 407.901 227.462Z" fill="black"/>
<path d="M32.3905 242.472C28.5705 242.922 25.1705 245.332 23.4805 248.802C22.5805 250.642 22.1705 252.882 22.3705 254.782C22.8205 258.922 25.2305 262.342 28.9405 264.072C30.6405 264.872 32.9305 265.272 34.7105 265.062C40.3005 264.432 44.3505 260.382 44.9805 254.792C45.1905 253.012 44.7905 250.722 43.9905 249.022C42.2805 245.362 38.8705 242.922 34.8305 242.462C33.8105 242.352 33.4405 242.352 32.3905 242.472ZM36.1805 243.902C39.7905 244.822 42.5805 247.602 43.5605 251.262C43.9105 252.582 43.9305 254.772 43.6005 256.102C42.6605 259.862 39.7805 262.742 36.0205 263.682C34.7005 264.012 32.5105 263.992 31.1805 263.632C27.4905 262.652 24.6805 259.802 23.7605 256.102C23.4305 254.752 23.4505 252.582 23.8105 251.232C24.8705 247.252 28.1405 244.312 32.2405 243.662C33.2205 243.512 35.1005 243.622 36.1805 243.902Z" fill="black"/>
<path d="M82.0805 243.612C75.8305 244.592 71.9405 251.002 73.9305 257.012C75.7005 262.312 81.4905 265.252 86.8005 263.552C91.4105 262.072 94.4405 257.442 93.8905 252.722C93.5605 249.862 92.2805 247.502 90.1105 245.762C87.8405 243.942 84.9505 243.162 82.0805 243.612ZM86.0705 244.862C89.2805 245.782 91.6505 248.152 92.5805 251.372C92.9105 252.482 92.9605 254.332 92.7005 255.562C91.8005 259.902 88.0705 262.962 83.6805 262.962C78.6005 262.962 74.4805 258.842 74.4805 253.762C74.4805 249.422 77.5105 245.682 81.7805 244.752C82.9305 244.492 84.9905 244.552 86.0705 244.862Z" fill="black"/>
<path d="M132.201 244.672C128.831 245.272 126.041 247.642 125.001 250.792C124.581 252.062 124.441 253.002 124.511 254.262C124.631 256.542 125.571 258.632 127.201 260.262C130.301 263.362 135.161 263.832 138.811 261.382C141.221 259.772 142.711 257.092 142.851 254.162C142.971 251.572 142.011 249.112 140.181 247.282C138.461 245.562 136.401 244.682 133.981 244.612C133.291 244.592 132.491 244.612 132.201 244.672ZM134.701 245.602C136.321 245.752 138.051 246.572 139.371 247.812C141.931 250.212 142.641 254.252 141.061 257.412C138.571 262.382 132.051 263.532 127.991 259.712C125.461 257.332 124.731 253.442 126.231 250.272C127.471 247.672 129.971 245.862 132.751 245.572C133.451 245.502 133.581 245.502 134.701 245.602Z" fill="black"/>
<path d="M182.031 245.802C180.391 246.182 179.161 246.872 177.971 248.052C176.451 249.582 175.701 251.242 175.611 253.362C175.491 255.832 176.341 257.942 178.111 259.632C179.791 261.232 181.771 261.952 184.131 261.832C186.201 261.732 187.881 260.982 189.391 259.472C190.381 258.472 190.931 257.602 191.401 256.252C191.721 255.342 191.731 255.252 191.721 253.762C191.721 252.272 191.711 252.172 191.401 251.262C190.941 249.932 190.391 249.062 189.391 248.052C188.381 247.042 187.501 246.492 186.181 246.052C185.351 245.772 185.071 245.732 183.931 245.702C183.051 245.672 182.431 245.712 182.031 245.802ZM185.281 246.662C187.481 247.152 189.511 248.872 190.411 251.012C190.931 252.262 191.081 253.992 190.781 255.362C190.301 257.552 188.581 259.592 186.501 260.452C183.231 261.802 179.621 260.702 177.601 257.742C176.331 255.882 176.061 253.142 176.951 251.022C177.661 249.302 179.111 247.832 180.831 247.062C182.031 246.532 183.901 246.362 185.281 246.662Z" fill="black"/>
<path d="M231.901 246.962C229.461 247.602 227.501 249.582 226.881 252.022C225.921 255.752 228.211 259.612 231.941 260.562C232.871 260.802 234.231 260.822 235.231 260.612C237.181 260.202 239.021 258.772 239.921 256.962C240.471 255.842 240.681 254.952 240.681 253.702C240.681 250.542 238.501 247.752 235.421 246.962C234.401 246.702 232.901 246.702 231.901 246.962ZM235.661 247.792C237.601 248.472 239.101 250.002 239.711 251.912C239.891 252.472 239.931 252.842 239.931 253.812C239.931 254.852 239.891 255.102 239.661 255.742C239.301 256.752 238.841 257.472 238.121 258.202C237.391 258.922 236.671 259.382 235.661 259.742C235.021 259.972 234.771 260.012 233.731 260.012C232.761 260.012 232.391 259.972 231.831 259.792C228.141 258.622 226.351 254.482 228.031 251.012C228.851 249.332 230.491 248.022 232.301 247.612C233.261 247.392 234.761 247.472 235.661 247.792Z" fill="black"/>
<path d="M282.581 247.912C279.421 248.492 277.271 251.592 277.831 254.782C278.391 258.012 281.471 260.182 284.711 259.612C288.131 259.012 290.301 255.622 289.431 252.242C288.661 249.282 285.621 247.352 282.581 247.912ZM285.091 248.622C286.881 249.152 288.291 250.562 288.821 252.352C289.021 253.042 289.031 254.342 288.831 255.112C288.361 256.892 286.911 258.372 285.091 258.902C284.401 259.102 283.101 259.112 282.331 258.912C280.521 258.442 279.001 256.922 278.531 255.112C278.211 253.862 278.391 252.392 279.011 251.222C279.631 250.032 280.981 248.972 282.291 248.622C283.021 248.422 284.411 248.422 285.091 248.622Z" fill="black"/>
<path d="M332.541 249.022C330.131 249.602 328.461 252.092 328.861 254.482C329.041 255.512 329.461 256.362 330.181 257.102C332.141 259.142 335.221 259.152 337.161 257.122C338.141 256.112 338.601 254.922 338.541 253.582C338.481 252.292 338.071 251.352 337.161 250.402C335.931 249.122 334.231 248.612 332.541 249.022ZM334.881 249.582C337.441 250.362 338.721 253.202 337.601 255.592C336.591 257.762 334.011 258.692 331.841 257.682C330.271 256.942 329.351 255.492 329.371 253.752C329.381 251.982 330.281 250.572 331.851 249.832C332.771 249.412 333.991 249.302 334.881 249.582Z" fill="black"/>
<path d="M382.561 250.152C381.831 250.392 381.401 250.662 380.901 251.202C379.891 252.302 379.641 253.742 380.201 255.232C380.351 255.652 380.581 255.982 381.021 256.422C383.311 258.712 387.151 257.292 387.451 254.052C387.701 251.432 385.091 249.352 382.561 250.152ZM384.741 250.572C385.311 250.752 385.511 250.882 386.041 251.402C386.561 251.932 386.691 252.132 386.871 252.702C386.991 253.082 387.081 253.552 387.081 253.762C387.081 253.972 386.991 254.442 386.871 254.822C386.691 255.392 386.561 255.592 386.041 256.122C385.511 256.642 385.311 256.772 384.741 256.952C384.361 257.072 383.891 257.162 383.681 257.162C383.471 257.162 383.001 257.072 382.621 256.952C382.051 256.772 381.851 256.642 381.321 256.122C380.801 255.592 380.671 255.392 380.491 254.822C380.371 254.442 380.281 253.972 380.281 253.762C380.281 253.552 380.371 253.082 380.491 252.702C380.671 252.132 380.801 251.932 381.321 251.402C381.831 250.892 382.061 250.742 382.591 250.572C383.421 250.312 383.901 250.312 384.741 250.572Z" fill="black"/>
<path d="M432.691 251.232C432.081 251.452 431.361 252.192 431.151 252.812C430.391 255.032 432.411 257.052 434.631 256.292C434.941 256.192 435.301 255.952 435.581 255.662C437.301 253.952 436.061 251.032 433.641 251.072C433.361 251.072 432.931 251.152 432.691 251.232ZM434.921 251.702C436.051 252.362 436.421 253.972 435.691 255.072C434.931 256.192 433.461 256.492 432.341 255.742C430.731 254.682 431.041 252.182 432.871 251.492C433.421 251.292 434.381 251.382 434.921 251.702Z" fill="black"/>
<path d="M7.78054 272.462C6.44054 272.672 5.14054 273.342 4.19053 274.302C2.95053 275.562 2.36053 277.012 2.36053 278.762C2.36053 280.512 2.95053 281.962 4.20053 283.222C6.24054 285.292 9.43054 285.692 11.9505 284.202C12.7105 283.742 13.6605 282.802 14.1305 282.012C15.3105 280.032 15.3105 277.502 14.1205 275.492C13.6605 274.732 12.7205 273.782 11.9305 273.312C10.7605 272.612 9.05054 272.262 7.78054 272.462Z" fill="black"/>
<path d="M57.4806 273.122C54.9006 273.672 52.8806 276.142 52.8806 278.762C52.8806 281.402 54.9006 283.862 57.5306 284.412C58.8306 284.682 60.0006 284.522 61.2806 283.902C63.1306 282.992 64.4806 280.822 64.4806 278.762C64.4806 277.332 63.8106 275.772 62.7406 274.702C61.3206 273.282 59.3906 272.702 57.4806 273.122Z" fill="black"/>
<path d="M107.411 273.712C105.121 274.332 103.481 276.442 103.481 278.762C103.481 281.582 105.861 283.962 108.681 283.962C111.501 283.962 113.881 281.582 113.881 278.762C113.881 275.912 111.481 273.542 108.631 273.572C108.251 273.572 107.691 273.642 107.411 273.712Z" fill="black"/>
<path d="M157.481 274.302C155.491 274.842 154.081 276.672 154.081 278.682C154.091 280.082 154.491 281.072 155.431 282.012C156.351 282.932 157.371 283.362 158.681 283.362C159.991 283.362 161.011 282.932 161.931 282.012C163.991 279.952 163.661 276.532 161.251 274.932C160.181 274.222 158.691 273.972 157.481 274.302Z" fill="black"/>
<path d="M208.061 274.772C206.391 275.002 204.931 276.472 204.701 278.162C204.321 280.872 206.571 283.122 209.281 282.742C210.981 282.512 212.431 281.062 212.661 279.362C212.881 277.792 212.221 276.272 210.951 275.432C210.071 274.852 209.121 274.632 208.061 274.772Z" fill="black"/>
<path d="M257.781 275.422C257.041 275.622 256.271 276.162 255.841 276.792C255.501 277.302 255.181 278.242 255.181 278.762C255.181 279.282 255.501 280.222 255.841 280.732C256.571 281.792 257.981 282.412 259.201 282.182C260.001 282.032 260.591 281.732 261.121 281.202C261.991 280.342 262.331 279.152 262.041 277.992C261.731 276.712 260.781 275.732 259.531 275.412C258.811 275.232 258.501 275.232 257.781 275.422Z" fill="black"/>
<path d="M307.681 276.062C306.951 276.312 306.151 277.142 305.931 277.882C305.601 279.012 305.831 279.912 306.661 280.762C307.111 281.222 307.351 281.382 307.771 281.502C308.951 281.852 309.861 281.612 310.701 280.762C311.121 280.332 311.311 280.052 311.421 279.652C311.761 278.512 311.541 277.612 310.701 276.762C310.251 276.302 310.011 276.142 309.591 276.022C308.881 275.812 308.361 275.822 307.681 276.062Z" fill="black"/>
<path d="M357.731 276.652C356.261 277.322 355.921 279.322 357.091 280.432C358.561 281.822 360.981 280.782 360.981 278.762C360.981 278.172 360.791 277.672 360.401 277.242C359.921 276.712 359.381 276.462 358.681 276.462C358.361 276.462 357.961 276.542 357.731 276.652Z" fill="black"/>
<path d="M408.531 277.012C408.481 277.032 408.311 277.072 408.161 277.102C407.821 277.182 407.321 277.602 407.111 277.992C406.931 278.352 406.911 279.142 407.081 279.472C407.421 280.122 407.991 280.482 408.681 280.482C409.671 280.482 410.401 279.752 410.401 278.762C410.401 277.882 409.821 277.192 408.931 277.042C408.771 277.012 408.591 277.002 408.531 277.012Z" fill="black"/>
<path d="M32.1806 290.972C26.6105 291.622 22.0205 295.952 21.0105 301.512C20.7905 302.712 20.8005 304.922 21.0205 306.082C22.0305 311.362 26.0805 315.412 31.3605 316.422C32.5205 316.642 34.7306 316.652 35.9306 316.432C40.8605 315.542 44.8806 311.822 46.1306 307.012C48.0406 299.662 43.2006 292.262 35.6806 291.052C34.7706 290.912 33.0705 290.872 32.1806 290.972ZM36.6106 292.592C40.5806 293.642 43.7706 296.832 44.8606 300.832C45.1006 301.732 45.1206 301.962 45.1206 303.762C45.1206 305.572 45.1006 305.782 44.8506 306.712C44.3506 308.562 43.0106 310.862 41.7206 312.072C40.3506 313.362 38.3505 314.482 36.6506 314.912C32.6005 315.942 28.4205 314.812 25.5205 311.922C22.0505 308.442 21.1605 303.112 23.3205 298.712C23.8605 297.602 24.9005 296.152 25.6405 295.452C27.2205 293.962 29.2106 292.922 31.3306 292.462C32.6806 292.172 35.2406 292.232 36.6106 292.592Z" fill="black"/>
<path d="M82.6805 292.172C77.7705 292.572 73.5805 296.132 72.4005 300.912C72.1205 302.042 72.0605 302.552 72.0605 303.862C72.0705 306.992 73.3305 309.942 75.6005 312.122C77.8305 314.272 80.5805 315.382 83.6805 315.382C90.1505 315.382 95.3005 310.232 95.3005 303.762C95.3005 300.662 94.1905 297.912 92.0405 295.682C90.1705 293.732 87.5205 292.432 85.0305 292.212C83.8205 292.102 83.5505 292.102 82.6805 292.172ZM86.3105 293.652C90.0905 294.622 93.0805 297.752 93.9005 301.612C94.1505 302.822 94.1505 304.692 93.9005 305.912C93.0405 309.942 89.8605 313.122 85.8305 313.982C84.6105 314.232 82.7405 314.232 81.5305 313.982C78.1505 313.262 75.3105 310.882 74.0105 307.692C73.0305 305.282 73.0105 302.312 73.9705 299.912C75.0305 297.282 77.3505 294.972 79.9205 294.012C81.9005 293.272 84.2805 293.142 86.3105 293.652Z" fill="black"/>
<path d="M131.581 293.562C126.721 294.582 123.281 298.812 123.281 303.782C123.281 309.542 127.931 314.172 133.711 314.162C139.461 314.152 144.081 309.522 144.081 303.762C144.081 298.782 140.631 294.572 135.731 293.552C134.571 293.312 132.751 293.312 131.581 293.562ZM136.131 294.752C139.261 295.602 141.841 298.182 142.691 301.312C142.981 302.372 143.071 304.022 142.901 305.172C142.391 308.742 139.701 311.762 136.131 312.782C135.441 312.982 135.101 313.012 133.681 313.012C132.421 313.012 131.881 312.972 131.401 312.842C128.051 311.912 125.531 309.412 124.621 306.102C124.401 305.292 124.321 303.152 124.481 302.182C125.101 298.302 128.361 295.102 132.271 294.542C133.421 294.372 135.071 294.462 136.131 294.752Z" fill="black"/>
<path d="M182.261 294.662C178.531 295.342 175.821 297.822 174.761 301.522C174.471 302.542 174.441 304.722 174.711 305.782C175.441 308.702 177.381 311.062 179.951 312.162C181.401 312.772 182.091 312.912 183.731 312.902C185.051 312.892 185.331 312.862 186.091 312.632C187.851 312.102 188.991 311.432 190.171 310.252C191.351 309.072 192.021 307.932 192.551 306.172C192.781 305.412 192.811 305.132 192.821 303.812C192.831 302.542 192.791 302.192 192.601 301.522C191.601 298.062 189.271 295.732 185.901 294.852C185.041 294.622 183.031 294.522 182.261 294.662ZM186.031 295.872C189.011 296.772 191.241 299.252 191.781 302.282C192.351 305.422 190.971 308.752 188.351 310.542C185.891 312.232 182.631 312.452 179.981 311.112C176.911 309.562 175.181 306.392 175.501 302.912C175.861 299.082 179.011 295.932 182.831 295.582C183.871 295.492 185.151 295.602 186.031 295.872Z" fill="black"/>
<path d="M232.261 295.912C230.601 296.232 229.261 296.952 228.011 298.222C227.211 299.032 227.021 299.302 226.591 300.182C225.931 301.532 225.741 302.322 225.741 303.762C225.741 305.222 225.931 306.002 226.601 307.362C227.051 308.282 227.231 308.532 228.071 309.372C228.911 310.212 229.161 310.392 230.081 310.842C231.441 311.512 232.221 311.702 233.681 311.702C235.131 311.702 235.911 311.512 237.281 310.842C238.211 310.392 238.431 310.232 239.281 309.372C240.121 308.532 240.311 308.282 240.761 307.362C241.431 306.002 241.621 305.222 241.621 303.762C241.621 302.302 241.431 301.522 240.761 300.162C240.311 299.242 240.131 298.992 239.291 298.152C238.451 297.312 238.201 297.132 237.281 296.682C236.701 296.402 235.941 296.102 235.581 296.012C234.611 295.782 233.171 295.742 232.261 295.912ZM235.971 297.012C238.021 297.712 239.741 299.422 240.431 301.472C240.761 302.482 240.881 304.082 240.681 305.092C239.971 308.732 236.661 311.192 232.931 310.852C230.301 310.612 227.901 308.712 226.981 306.172C225.681 302.602 227.511 298.532 231.021 297.152C232.131 296.722 232.461 296.672 233.881 296.702C234.941 296.722 235.261 296.772 235.971 297.012Z" fill="black"/>
<path d="M282.881 297.072C279.501 297.462 276.961 300.322 276.961 303.752C276.951 309.402 283.431 312.522 287.911 309.012C290.321 307.112 291.101 303.622 289.731 300.812C288.481 298.232 285.741 296.742 282.881 297.072ZM284.931 297.872C285.261 297.932 285.911 298.162 286.371 298.382C288.851 299.572 290.181 302.432 289.541 305.202C289.051 307.302 287.221 309.132 285.121 309.622C283.041 310.102 280.911 309.502 279.431 308.012C278.261 306.852 277.651 305.372 277.671 303.732C277.681 302.712 277.841 302.032 278.301 301.072C279.221 299.142 281.171 297.882 283.431 297.732C283.881 297.712 284.071 297.722 284.931 297.872Z" fill="black"/>
<path d="M332.291 298.412C330.291 298.972 328.831 300.462 328.321 302.462C328.101 303.312 328.171 304.772 328.471 305.612C329.011 307.112 330.301 308.412 331.831 308.972C332.661 309.282 334.561 309.302 335.371 309.022C337.011 308.452 338.341 307.162 338.891 305.612C339.141 304.892 339.251 303.412 339.101 302.702C338.691 300.822 337.381 299.262 335.631 298.602C334.751 298.262 333.141 298.172 332.291 298.412ZM335.811 299.342C336.881 299.872 337.641 300.642 338.161 301.732C338.531 302.502 338.531 302.522 338.531 303.772V305.022L338.111 305.882C337.061 308.002 334.821 309.072 332.541 308.562C330.861 308.182 329.261 306.582 328.881 304.902C328.741 304.282 328.741 303.242 328.881 302.622C329.241 301.012 330.631 299.552 332.321 298.992C332.591 298.912 333.111 298.872 333.851 298.892C334.931 298.922 335.001 298.942 335.811 299.342Z" fill="black"/>
<path d="M382.581 299.602C380.721 300.122 379.381 301.862 379.381 303.762C379.381 306.092 381.351 308.062 383.681 308.062C386.011 308.062 387.981 306.092 387.981 303.762C387.981 300.992 385.221 298.872 382.581 299.602ZM385.331 300.312C386.091 300.682 386.761 301.352 387.141 302.112C387.401 302.662 387.431 302.802 387.431 303.762C387.431 304.722 387.401 304.862 387.141 305.412C386.761 306.172 386.091 306.842 385.331 307.222C384.781 307.482 384.641 307.512 383.681 307.512C382.721 307.512 382.581 307.482 382.031 307.222C381.271 306.842 380.601 306.172 380.231 305.422C379.861 304.672 379.771 303.482 380.011 302.652C380.341 301.542 381.391 300.462 382.481 300.112C382.771 300.012 383.251 299.972 383.841 299.992C384.601 300.012 384.831 300.062 385.331 300.312Z" fill="black"/>
<path d="M432.881 300.792C431.491 301.182 430.641 302.312 430.641 303.762C430.641 304.642 430.861 305.212 431.431 305.842C432.601 307.142 434.761 307.142 435.931 305.842C436.501 305.212 436.721 304.642 436.721 303.762C436.721 302.882 436.501 302.312 435.931 301.682C435.211 300.882 433.901 300.502 432.881 300.792ZM434.941 301.342C435.841 301.812 436.381 302.712 436.381 303.762C436.381 305.312 435.231 306.462 433.681 306.462C432.141 306.462 430.961 305.282 430.971 303.752C430.981 301.712 433.131 300.412 434.941 301.342Z" fill="black"/>
<path d="M7.86056 321.662C3.99056 322.122 1.16056 325.672 1.59056 329.522C2.16056 334.592 7.69056 337.472 12.1306 335.002C16.0406 332.842 17.0206 327.622 14.1606 324.192C12.6206 322.352 10.2206 321.392 7.86056 321.662Z" fill="black"/>
<path d="M57.4905 322.372C54.5205 322.902 52.1805 325.722 52.1805 328.762C52.1805 331.592 54.1505 334.192 56.9305 335.022C57.7605 335.272 59.6005 335.272 60.4305 335.022C62.1505 334.512 63.7105 333.212 64.4705 331.662C64.9405 330.702 65.1805 329.722 65.1805 328.762C65.1805 325.952 63.2005 323.322 60.4805 322.522C59.8105 322.322 58.2205 322.242 57.4905 322.372Z" fill="black"/>
<path d="M107.921 322.962C104.961 323.412 102.861 325.812 102.861 328.762C102.861 329.512 102.911 329.882 103.121 330.522C104.441 334.622 109.531 335.952 112.671 333.012C115.471 330.402 115.001 325.812 111.731 323.772C110.741 323.142 109.051 322.792 107.921 322.962Z" fill="black"/>
<path d="M157.411 323.712C156.531 323.952 155.671 324.452 155.021 325.102C152.971 327.152 152.971 330.372 155.021 332.422C157.071 334.472 160.291 334.472 162.341 332.422C164.381 330.382 164.381 327.142 162.341 325.102C161.051 323.812 159.101 323.262 157.411 323.712Z" fill="black"/>
<path d="M207.981 324.262C205.941 324.632 204.511 326.102 204.171 328.182C203.861 330.112 205.131 332.272 206.981 332.972C208.541 333.562 210.161 333.352 211.431 332.382C213.561 330.762 213.831 327.662 212.011 325.652C211.081 324.622 209.321 324.012 207.981 324.262Z" fill="black"/>
<path d="M257.631 324.992C256.461 325.382 255.651 326.092 255.151 327.142C254.861 327.752 254.831 327.902 254.831 328.762C254.831 329.622 254.861 329.772 255.151 330.382C255.551 331.232 256.211 331.892 257.061 332.292C257.671 332.582 257.821 332.612 258.681 332.612C259.541 332.612 259.691 332.582 260.301 332.292C261.151 331.892 261.811 331.232 262.211 330.382C262.501 329.772 262.531 329.622 262.531 328.762C262.531 327.902 262.501 327.752 262.211 327.142C261.571 325.772 260.321 324.952 258.831 324.892C258.351 324.872 257.871 324.912 257.631 324.992Z" fill="black"/>
<path d="M307.901 325.612C307.161 325.822 306.881 325.982 306.351 326.522C305.121 327.762 305.141 329.792 306.391 331.052C308.431 333.092 311.911 331.652 311.911 328.762C311.911 326.662 309.881 325.062 307.901 325.612Z" fill="black"/>
<path d="M357.681 326.372C355.581 327.322 355.561 330.142 357.631 331.122C359.291 331.912 361.271 330.622 361.281 328.762C361.281 327.362 360.081 326.162 358.681 326.162C358.341 326.162 357.961 326.242 357.681 326.372Z" fill="black"/>
<path d="M408.091 326.912C407.481 327.102 407.011 327.592 406.821 328.232C406.681 328.712 406.681 328.812 406.821 329.302C406.931 329.682 407.091 329.942 407.361 330.182C408.451 331.162 410.131 330.692 410.541 329.292C410.681 328.812 410.681 328.712 410.541 328.232C410.351 327.582 409.881 327.102 409.231 326.902C408.661 326.732 408.661 326.732 408.091 326.912Z" fill="black"/>
<path d="M32.0005 339.472C26.8405 340.072 22.2405 343.602 20.3605 348.372C19.5705 350.402 19.2705 352.052 19.3305 354.162C19.5205 361.002 24.3005 366.572 31.1305 367.922C32.3605 368.172 34.9805 368.162 36.2305 367.922C42.2305 366.752 46.6705 362.312 47.8405 356.312C48.0805 355.062 48.0905 352.442 47.8405 351.212C46.6605 345.202 42.1105 340.662 36.2105 339.612C35.1705 339.422 33.0305 339.352 32.0005 339.472ZM36.2805 341.112C42.5405 342.472 46.8405 348.002 46.5505 354.312C46.4005 357.632 45.1305 360.522 42.7905 362.872C40.1605 365.492 36.8605 366.772 33.1305 366.622C27.1705 366.382 22.2905 362.212 21.0105 356.262C20.8705 355.602 20.8305 355.002 20.8405 353.612C20.8505 351.942 20.8705 351.732 21.1505 350.662C21.7805 348.292 22.9005 346.332 24.5705 344.652C26.5205 342.712 28.8705 341.502 31.6805 341.002C32.6605 340.832 35.2605 340.892 36.2805 341.112Z" fill="black"/>
<path d="M82.1305 340.822C79.9105 341.162 78.0705 341.852 76.4305 342.962C73.5805 344.902 71.6605 347.762 70.9205 351.162C70.7805 351.812 70.7305 352.432 70.7305 353.762C70.7305 355.092 70.7805 355.712 70.9205 356.362C72.0405 361.522 75.9205 365.402 81.0805 366.522C82.2805 366.782 85.0805 366.782 86.2805 366.522C91.4405 365.402 95.3205 361.522 96.4405 356.362C96.7005 355.162 96.7005 352.362 96.4405 351.162C95.3305 346.072 91.5405 342.222 86.4805 341.052C85.6505 340.852 82.8705 340.712 82.1305 340.822ZM85.8905 342.292C90.7505 343.262 94.4605 347.132 95.2205 352.032C95.5005 353.812 95.2705 356.132 94.6505 357.762C92.5105 363.442 86.5705 366.552 80.7305 365.062C78.5405 364.502 76.2405 363.062 74.8105 361.352C71.0805 356.902 71.0805 350.622 74.8105 346.172C76.5605 344.082 79.3205 342.572 82.1305 342.172C82.9905 342.052 85.0005 342.122 85.8905 342.292Z" fill="black"/>
<path d="M132.681 342.172C127.061 342.642 122.571 347.132 122.091 352.752C121.801 356.282 123.071 359.682 125.601 362.122C127.831 364.272 130.581 365.382 133.681 365.382C140.151 365.372 145.291 360.232 145.301 353.762C145.301 349.492 143.041 345.672 139.281 343.542C137.481 342.522 134.891 341.982 132.681 342.172ZM135.901 343.562C139.881 344.422 143.051 347.612 143.891 351.602C144.151 352.832 144.161 354.692 143.901 355.912C143.181 359.292 140.751 362.182 137.531 363.472C135.131 364.432 132.161 364.412 129.751 363.432C127.151 362.372 125.021 360.232 123.981 357.622C122.811 354.722 123.081 351.142 124.651 348.512C127.031 344.562 131.461 342.602 135.901 343.562Z" fill="black"/>
<path d="M182.081 343.612C175.831 344.592 171.941 351.002 173.931 357.012C175.701 362.312 181.491 365.252 186.801 363.552C191.411 362.072 194.441 357.442 193.891 352.722C193.561 349.862 192.281 347.502 190.111 345.762C187.841 343.942 184.951 343.162 182.081 343.612ZM186.071 344.862C189.281 345.782 191.651 348.152 192.581 351.372C192.911 352.482 192.961 354.332 192.701 355.562C191.801 359.902 188.071 362.962 183.681 362.962C178.601 362.962 174.481 358.842 174.481 353.762C174.481 349.422 177.511 345.682 181.781 344.752C182.931 344.492 184.991 344.552 186.071 344.862Z" fill="black"/>
<path d="M231.991 345.012C228.551 345.792 226.131 348.012 225.111 351.332C224.871 352.122 224.841 352.372 224.841 353.712C224.841 354.962 224.881 355.352 225.061 356.012C225.921 359.112 228.151 361.382 231.251 362.332C232.041 362.572 232.291 362.592 233.681 362.602C235.091 362.602 235.311 362.572 236.111 362.332C239.151 361.392 241.311 359.232 242.251 356.192C242.491 355.392 242.521 355.172 242.521 353.762C242.511 352.372 242.491 352.122 242.251 351.332C241.301 348.232 239.001 345.972 235.931 345.152C234.891 344.872 232.911 344.802 231.991 345.012ZM235.781 346.062C236.191 346.182 236.931 346.482 237.431 346.742C238.161 347.112 238.511 347.382 239.281 348.162C240.061 348.932 240.331 349.282 240.701 350.012C241.331 351.242 241.581 352.172 241.631 353.462C241.711 355.702 241.001 357.602 239.451 359.222C237.811 360.962 235.801 361.792 233.431 361.712C232.091 361.662 231.181 361.422 229.931 360.782C229.201 360.412 228.851 360.142 228.081 359.362C227.301 358.592 227.031 358.242 226.651 357.502C225.951 356.132 225.741 355.272 225.741 353.762C225.741 352.252 225.951 351.392 226.651 350.022C227.031 349.282 227.301 348.932 228.081 348.162C228.851 347.382 229.201 347.112 229.931 346.742C230.861 346.262 231.651 345.992 232.531 345.852C233.311 345.732 234.941 345.832 235.781 346.062Z" fill="black"/>
<path d="M281.831 346.452C279.291 347.142 277.381 348.922 276.511 351.412C276.251 352.152 276.231 352.322 276.231 353.762C276.231 355.202 276.251 355.372 276.511 356.112C276.911 357.262 277.511 358.202 278.371 359.072C279.241 359.932 280.181 360.532 281.331 360.932C282.071 361.192 282.241 361.212 283.681 361.212C285.121 361.212 285.291 361.192 286.031 360.932C287.181 360.532 288.121 359.932 288.991 359.072C289.851 358.202 290.451 357.262 290.851 356.112C291.111 355.372 291.131 355.202 291.131 353.762C291.131 352.322 291.111 352.152 290.851 351.412C290.451 350.262 289.851 349.322 288.991 348.452C288.121 347.582 287.171 346.992 286.031 346.602C284.941 346.232 282.911 346.162 281.831 346.452ZM285.091 347.162C286.261 347.392 287.721 348.202 288.551 349.072C289.361 349.942 290.021 351.162 290.291 352.342C290.451 353.042 290.421 354.632 290.241 355.372C289.641 357.742 287.691 359.702 285.331 360.312C284.551 360.512 282.821 360.512 282.031 360.312C279.661 359.702 277.741 357.782 277.131 355.412C276.931 354.612 276.931 352.892 277.131 352.112C278.061 348.582 281.511 346.442 285.091 347.162Z" fill="black"/>
<path d="M332.441 347.722C329.991 348.182 328.031 350.242 327.601 352.812C327.451 353.692 327.451 353.832 327.601 354.732C328.041 357.332 329.981 359.332 332.511 359.812C333.501 360.002 333.901 360.002 334.861 359.812C337.391 359.312 339.321 357.312 339.761 354.732C339.911 353.832 339.911 353.692 339.761 352.792C339.321 350.192 337.381 348.192 334.841 347.712C333.941 347.542 333.421 347.542 332.441 347.722ZM335.021 348.412C337.461 349.052 339.181 351.262 339.181 353.762C339.181 356.792 336.711 359.262 333.681 359.262C331.331 359.262 329.231 357.762 328.441 355.512C328.211 354.852 328.121 353.372 328.281 352.632C328.571 351.222 329.621 349.762 330.871 349.022C332.121 348.292 333.681 348.062 335.021 348.412Z" fill="black"/>
<path d="M382.221 349.202C381.371 349.482 380.781 349.872 380.111 350.602C378.951 351.862 378.591 353.602 379.131 355.232C379.421 356.072 379.611 356.402 380.221 357.042C380.821 357.682 381.361 358.022 382.211 358.312C383.401 358.702 384.681 358.612 385.861 358.042C386.421 357.772 387.381 356.892 387.761 356.282C388.461 355.182 388.661 353.672 388.271 352.402C388.011 351.562 387.781 351.162 387.151 350.492C385.851 349.112 383.991 348.622 382.221 349.202ZM384.731 349.612C386.411 350.052 387.611 351.372 387.911 353.122C388.361 355.772 386.041 358.262 383.331 358.032C380.811 357.822 378.971 355.382 379.471 352.942C379.981 350.522 382.371 349.002 384.731 349.612Z" fill="black"/>
<path d="M432.381 350.582C431.621 350.872 430.781 351.722 430.501 352.492C430.011 353.802 430.301 355.202 431.271 356.172C431.971 356.872 432.681 357.162 433.681 357.162C434.681 357.162 435.391 356.872 436.091 356.172C436.791 355.472 437.081 354.762 437.081 353.762C437.081 352.762 436.791 352.052 436.091 351.352C435.381 350.642 434.681 350.362 433.651 350.372C433.171 350.372 432.751 350.442 432.381 350.582ZM434.701 350.882C435.351 351.072 436.001 351.652 436.381 352.402C436.681 352.992 436.721 353.172 436.721 353.772C436.691 355.482 435.391 356.772 433.691 356.792C432.491 356.812 431.501 356.192 430.961 355.092C430.701 354.552 430.641 354.322 430.641 353.772C430.641 352.692 431.191 351.702 432.051 351.192C432.931 350.682 433.691 350.592 434.701 350.882Z" fill="black"/>
<path d="M6.83057 371.052C4.10057 371.752 2.09057 373.602 1.16057 376.262C0.840566 377.182 0.830566 377.262 0.830566 378.762C0.830566 380.262 0.840566 380.342 1.16057 381.262C2.10057 383.962 4.21057 385.872 6.98057 386.512C7.82057 386.702 9.54057 386.702 10.3806 386.512C13.1506 385.872 15.2606 383.962 16.2006 381.262C16.5206 380.342 16.5306 380.262 16.5306 378.762C16.5306 377.262 16.5206 377.182 16.2006 376.262C15.2606 373.562 13.1506 371.652 10.3806 371.012C9.49057 370.812 7.72057 370.832 6.83057 371.052Z" fill="black"/>
<path d="M57.1205 371.712C54.8405 372.202 52.8305 373.942 51.9505 376.162C50.7205 379.302 51.9105 382.972 54.7705 384.812C58.1405 386.972 62.5805 386.012 64.7305 382.672C67.2005 378.822 65.5505 373.712 61.2805 372.032C60.0605 371.552 58.4205 371.432 57.1205 371.712Z" fill="black"/>
<path d="M107.281 372.422C105.071 372.892 103.101 374.762 102.421 377.012C102.171 377.842 102.171 379.682 102.421 380.512C102.931 382.232 104.231 383.792 105.781 384.552C107.711 385.492 109.651 385.492 111.581 384.552C113.131 383.792 114.431 382.232 114.941 380.512C115.191 379.682 115.191 377.842 114.941 377.012C114.431 375.292 113.131 373.732 111.581 372.972C110.191 372.292 108.741 372.102 107.281 372.422Z" fill="black"/>
<path d="M157.481 373.122C154.901 373.672 152.881 376.142 152.881 378.762C152.881 381.402 154.901 383.862 157.531 384.412C158.831 384.682 160.001 384.522 161.281 383.902C163.131 382.992 164.481 380.822 164.481 378.762C164.481 377.332 163.811 375.772 162.741 374.702C161.321 373.282 159.391 372.702 157.481 373.122Z" fill="black"/>
<path d="M207.681 373.822C205.291 374.332 203.651 376.352 203.651 378.762C203.651 381.252 205.331 383.232 207.861 383.732C208.611 383.882 208.751 383.882 209.501 383.732C212.031 383.232 213.711 381.252 213.711 378.762C213.711 376.332 212.061 374.322 209.631 373.812C208.791 373.632 208.521 373.632 207.681 373.822Z" fill="black"/>
<path d="M257.431 374.592C256.241 374.992 255.271 375.832 254.751 376.932C254.451 377.572 254.431 377.672 254.431 378.762C254.431 379.852 254.451 379.952 254.751 380.592C255.171 381.482 255.961 382.272 256.851 382.692C257.491 382.992 257.591 383.012 258.681 383.012C259.771 383.012 259.871 382.992 260.511 382.692C261.401 382.272 262.191 381.482 262.611 380.592C262.911 379.952 262.931 379.852 262.931 378.762C262.931 377.672 262.911 377.572 262.611 376.932C262.191 376.042 261.401 375.252 260.511 374.832C259.911 374.552 259.711 374.512 258.831 374.492C258.201 374.472 257.681 374.512 257.431 374.592Z" fill="black"/>
<path d="M307.511 375.342C306.511 375.702 305.801 376.352 305.351 377.332C305.171 377.722 305.131 377.992 305.131 378.762C305.131 379.582 305.171 379.792 305.401 380.282C305.741 381.012 306.431 381.702 307.161 382.042C307.651 382.272 307.861 382.312 308.681 382.312C309.501 382.312 309.711 382.272 310.201 382.042C310.931 381.702 311.621 381.012 311.961 380.282C312.191 379.792 312.231 379.582 312.231 378.762C312.231 377.942 312.191 377.732 311.961 377.242C311.621 376.512 310.921 375.812 310.201 375.482C309.441 375.132 308.261 375.072 307.511 375.342Z" fill="black"/>
<path d="M357.681 376.062C356.931 376.312 356.161 377.112 355.941 377.862C355.741 378.542 355.741 378.982 355.941 379.672C356.261 380.752 357.511 381.662 358.681 381.662C360.211 381.662 361.581 380.292 361.581 378.762C361.581 378.002 361.291 377.342 360.691 376.752C359.841 375.892 358.841 375.662 357.681 376.062Z" fill="black"/>
<path d="M407.931 376.722C407.151 377.012 406.481 377.952 406.481 378.772C406.481 379.232 406.771 379.902 407.151 380.282C407.521 380.662 408.201 380.962 408.681 380.962C409.161 380.962 409.841 380.662 410.211 380.282C410.591 379.902 410.881 379.232 410.881 378.772C410.881 377.932 410.211 377.002 409.391 376.712C408.861 376.532 408.461 376.532 407.931 376.722Z" fill="black"/>
<path d="M31.7006 387.982C30.0106 388.192 27.6206 388.952 26.1806 389.742C24.1406 390.862 21.8306 392.922 20.6006 394.732C17.7506 398.932 17.0406 404.042 18.6406 408.852C19.4306 411.222 20.6006 413.092 22.4706 414.972C24.8206 417.312 27.3206 418.652 30.6806 419.372C32.2006 419.702 35.1606 419.702 36.6806 419.372C40.0306 418.662 42.5406 417.312 44.8806 414.962C47.2306 412.622 48.5806 410.112 49.2906 406.762C49.6206 405.242 49.6206 402.282 49.2906 400.762C48.4606 396.872 46.5306 393.702 43.5306 391.292C40.3106 388.712 35.8406 387.462 31.7006 387.982ZM36.1106 389.702C38.9306 390.162 41.5706 391.552 43.7306 393.712C45.0006 394.972 45.8806 396.212 46.5806 397.702C47.5206 399.682 47.9206 401.542 47.9106 403.862C47.9106 406.162 47.4406 408.142 46.4106 410.172C43.2406 416.402 36.1606 419.422 29.4806 417.402C25.1206 416.072 21.3706 412.322 20.0406 407.962C18.0006 401.222 21.1106 394.052 27.4106 390.972C30.1806 389.622 33.0206 389.202 36.1106 389.702Z" fill="black"/>
<path d="M82.3306 389.432C80.8206 389.572 78.8706 390.122 77.4306 390.822C73.3006 392.802 70.4306 396.582 69.5206 401.212C69.2806 402.462 69.2706 405.082 69.5206 406.312C70.7106 412.342 75.2206 416.832 81.2006 417.932C82.5806 418.182 85.1106 418.162 86.4506 417.872C92.2906 416.642 96.5606 412.372 97.7906 406.532C98.0806 405.192 98.1006 402.662 97.8506 401.282C96.7606 395.322 92.2506 390.772 86.2806 389.612C85.4706 389.452 83.1806 389.352 82.3306 389.432ZM86.6406 391.202C91.6206 392.432 95.2706 396.212 96.3506 401.262C96.4906 401.922 96.5306 402.522 96.5206 403.912C96.5106 405.582 96.4906 405.792 96.2106 406.862C94.6006 412.912 89.2106 416.932 83.0906 416.632C75.9506 416.292 70.4906 410.322 70.8106 403.212C70.9206 400.712 71.6006 398.642 72.9806 396.572C74.9906 393.572 78.0606 391.622 81.7306 391.002C82.9806 390.792 85.3706 390.892 86.6406 391.202Z" fill="black"/>
<path d="M132.181 390.972C126.611 391.622 122.021 395.952 121.011 401.512C120.791 402.712 120.801 404.922 121.021 406.082C122.031 411.362 126.081 415.412 131.361 416.422C132.521 416.642 134.731 416.652 135.931 416.432C142.941 415.162 147.571 408.502 146.341 401.462C145.401 396.142 141.081 391.922 135.681 391.052C134.771 390.912 133.071 390.872 132.181 390.972ZM136.611 392.592C140.581 393.642 143.771 396.832 144.861 400.832C145.101 401.732 145.121 401.962 145.121 403.762C145.121 405.572 145.101 405.782 144.851 406.712C144.351 408.562 143.011 410.862 141.721 412.072C140.351 413.362 138.351 414.482 136.651 414.912C132.601 415.942 128.421 414.812 125.521 411.922C122.051 408.442 121.161 403.112 123.321 398.712C123.861 397.602 124.901 396.152 125.641 395.452C127.221 393.962 129.211 392.922 131.331 392.462C132.681 392.172 135.241 392.232 136.611 392.592Z" fill="black"/>
<path d="M182.231 392.512C177.631 393.142 173.881 396.422 172.731 400.802C172.191 402.842 172.191 404.592 172.721 406.682C173.511 409.792 175.781 412.542 178.731 413.962C181.901 415.492 185.491 415.492 188.641 413.962C192.221 412.222 194.551 408.852 194.991 404.792C195.351 401.462 193.971 397.852 191.441 395.492C189.601 393.772 187.381 392.762 184.791 392.462C183.741 392.342 183.381 392.352 182.231 392.512ZM186.181 393.892C189.841 394.842 192.681 397.722 193.601 401.422C193.931 402.762 193.911 404.942 193.551 406.292C192.601 409.882 189.801 412.672 186.211 413.632C184.861 413.992 182.691 414.012 181.341 413.682C177.641 412.762 174.801 409.962 173.801 406.262C173.451 404.942 173.431 402.752 173.761 401.422C174.781 397.332 178.071 394.322 182.241 393.662C183.231 393.512 185.111 393.622 186.181 393.892Z" fill="black"/>
<path d="M232.711 393.972C228.511 394.342 224.911 397.592 224.031 401.822C223.821 402.852 223.821 404.672 224.031 405.702C224.911 409.962 228.471 413.152 232.761 413.552C234.621 413.722 236.341 413.402 238.031 412.562C241.101 411.042 243.161 408.062 243.471 404.682C243.891 400.132 241.111 395.872 236.781 394.422C235.501 394.002 234.161 393.852 232.711 393.972ZM235.931 395.212C238.441 395.902 240.561 397.702 241.671 400.082C242.301 401.422 242.421 402.002 242.431 403.712C242.431 405.302 242.351 405.822 241.901 406.962C241.511 407.962 240.901 408.912 240.141 409.732C239.301 410.632 238.471 411.242 237.361 411.752C236.001 412.392 235.451 412.502 233.681 412.502C231.921 412.502 231.361 412.392 230.011 411.762C228.041 410.842 226.601 409.412 225.691 407.442C225.051 406.082 224.941 405.532 224.941 403.762C224.941 401.992 225.051 401.442 225.691 400.082C226.361 398.642 227.461 397.322 228.711 396.472C229.671 395.812 231.191 395.212 232.331 395.022C232.951 394.922 235.331 395.052 235.931 395.212Z" fill="black"/>
<path d="M282.091 395.562C281.321 395.722 280.661 395.972 279.731 396.442C278.981 396.822 278.661 397.072 277.831 397.902C277.011 398.732 276.741 399.072 276.361 399.812C275.581 401.342 275.431 401.962 275.431 403.762C275.431 405.562 275.571 406.182 276.361 407.712C276.741 408.462 276.991 408.782 277.821 409.612C278.651 410.432 278.991 410.702 279.731 411.082C281.261 411.862 281.881 412.012 283.681 412.012C285.491 412.012 286.111 411.862 287.631 411.082C288.371 410.702 288.711 410.432 289.531 409.612C290.351 408.792 290.621 408.452 291.001 407.712C291.781 406.192 291.931 405.572 291.931 403.762C291.931 401.962 291.781 401.342 291.001 399.812C290.621 399.072 290.351 398.732 289.531 397.902C288.701 397.072 288.381 396.822 287.631 396.442C286.181 395.702 285.551 395.542 283.931 395.502C283.161 395.482 282.331 395.512 282.091 395.562ZM285.451 396.522C287.591 397.002 289.541 398.622 290.481 400.702C290.931 401.682 291.111 402.562 291.111 403.762C291.111 404.962 290.931 405.842 290.481 406.822C289.531 408.912 287.631 410.492 285.401 411.032C284.521 411.242 282.841 411.242 281.961 411.032C279.731 410.492 277.831 408.912 276.881 406.822C276.431 405.842 276.251 404.962 276.251 403.762C276.251 402.092 276.681 400.742 277.621 399.432C279.391 396.942 282.391 395.822 285.451 396.522Z" fill="black"/>
<path d="M332.231 397.112C329.851 397.632 328.041 399.272 327.201 401.652C326.961 402.332 326.931 402.552 326.931 403.762C326.931 404.982 326.961 405.192 327.211 405.912C327.941 407.982 329.421 409.472 331.471 410.202C332.271 410.492 332.421 410.512 333.681 410.512C334.881 410.512 335.111 410.482 335.791 410.242C337.321 409.702 338.511 408.802 339.341 407.542C340.681 405.532 340.841 402.922 339.771 400.732C338.431 397.982 335.241 396.452 332.231 397.112ZM335.001 397.812C337.711 398.382 339.781 400.962 339.781 403.762C339.781 407.102 337.021 409.862 333.681 409.862C330.331 409.862 327.581 407.112 327.581 403.762C327.581 401.932 328.511 400.022 329.921 398.962C331.411 397.832 333.201 397.422 335.001 397.812Z" fill="black"/>
<path d="M382.381 398.612C380.021 399.262 378.381 401.372 378.381 403.762C378.381 406.792 380.961 409.222 383.981 409.032C387.861 408.792 390.121 404.792 388.361 401.282C388.011 400.582 387.101 399.612 386.431 399.212C385.301 398.552 383.541 398.292 382.381 398.612ZM384.601 399.112C385.321 399.202 386.421 399.802 387.041 400.432C389.321 402.752 388.651 406.582 385.701 408.032C384.941 408.412 384.931 408.412 383.681 408.412C382.431 408.412 382.421 408.412 381.661 408.032C379.681 407.062 378.661 405.072 379.031 402.922C379.371 400.952 381.051 399.332 382.981 399.082C383.641 399.002 383.761 399.002 384.601 399.112Z" fill="black"/>
<path d="M432.721 400.092C430.421 400.682 429.221 403.352 430.301 405.502C430.411 405.712 430.701 406.102 430.941 406.362C433.011 408.582 436.771 407.502 437.381 404.512C437.531 403.802 437.461 403.072 437.161 402.292C436.861 401.482 435.951 400.572 435.131 400.272C434.391 399.992 433.401 399.922 432.721 400.092ZM434.741 400.572C435.311 400.752 435.511 400.882 436.041 401.402C436.561 401.932 436.691 402.132 436.871 402.702C436.991 403.082 437.081 403.552 437.081 403.762C437.081 403.972 436.991 404.442 436.871 404.822C436.691 405.392 436.561 405.592 436.041 406.122C435.511 406.642 435.311 406.772 434.741 406.952C434.361 407.072 433.891 407.162 433.681 407.162C433.471 407.162 433.001 407.072 432.621 406.952C432.051 406.772 431.851 406.642 431.321 406.122C430.801 405.592 430.671 405.392 430.491 404.822C430.371 404.442 430.281 403.972 430.281 403.762C430.281 403.552 430.371 403.082 430.491 402.702C430.671 402.132 430.801 401.932 431.321 401.402C431.831 400.892 432.061 400.742 432.591 400.572C433.421 400.312 433.901 400.312 434.741 400.572Z" fill="black"/>
<path d="M6.83054 420.222C6.04054 420.392 4.84054 420.882 4.00054 421.382C3.28054 421.812 1.73054 423.362 1.30054 424.082C0.300544 425.782 -0.0694565 427.242 0.0105435 429.152C0.0805435 430.662 0.230544 431.292 0.880544 432.612C1.74054 434.382 3.06054 435.702 4.83054 436.562C6.33054 437.292 6.85054 437.412 8.68054 437.412C10.5105 437.412 11.0305 437.292 12.5305 436.562C14.3105 435.702 15.6205 434.382 16.4805 432.612C17.1905 431.122 17.3305 430.502 17.3305 428.712C17.3205 426.932 17.2005 426.392 16.4805 424.912C15.9305 423.772 15.1805 422.812 14.2005 422.002C13.4705 421.392 11.8705 420.572 10.9305 420.312C10.0605 420.072 7.74054 420.022 6.83054 420.222Z" fill="black"/>
<path d="M56.8305 421.052C53.7405 421.892 51.6305 424.042 50.9305 427.062C50.7405 427.902 50.7405 429.622 50.9305 430.462C51.5705 433.232 53.4805 435.342 56.1805 436.282C57.1005 436.602 57.1805 436.612 58.6805 436.612C60.1805 436.612 60.2605 436.602 61.1805 436.282C63.8805 435.342 65.7905 433.232 66.4305 430.462C66.5105 430.102 66.5805 429.342 66.5805 428.762C66.5805 428.182 66.5105 427.422 66.4305 427.062C65.7805 424.292 63.8605 422.162 61.1805 421.252C60.3305 420.962 60.0905 420.922 58.8805 420.892C57.7905 420.872 57.3905 420.902 56.8305 421.052Z" fill="black"/>
<path d="M107.861 421.662C103.991 422.122 101.161 425.672 101.591 429.522C102.031 433.452 105.561 436.292 109.441 435.852C113.371 435.412 116.211 431.882 115.771 428.002C115.331 424.052 111.761 421.202 107.861 421.662Z" fill="black"/>
<path d="M157.781 422.462C156.441 422.672 155.141 423.342 154.191 424.302C152.951 425.562 152.361 427.012 152.361 428.762C152.361 430.512 152.951 431.962 154.201 433.222C156.241 435.292 159.421 435.702 161.951 434.202C162.711 433.742 163.661 432.802 164.131 432.012C165.311 430.032 165.311 427.502 164.121 425.492C163.661 424.732 162.721 423.782 161.931 423.312C160.761 422.612 159.051 422.262 157.781 422.462Z" fill="black"/>
<path d="M208.031 423.222C206.781 423.412 205.641 423.982 204.771 424.852C203.691 425.932 203.141 427.252 203.141 428.762C203.141 430.272 203.691 431.592 204.771 432.672C205.851 433.752 207.171 434.302 208.681 434.302C210.191 434.302 211.511 433.752 212.591 432.672C213.671 431.592 214.221 430.272 214.221 428.762C214.221 426.292 212.601 424.142 210.211 423.432C209.641 423.262 208.511 423.152 208.031 423.222Z" fill="black"/>
<path d="M257.491 424.162C255.321 424.752 253.971 426.482 253.941 428.712C253.931 429.742 254.111 430.382 254.651 431.282C255.331 432.412 256.401 433.132 257.861 433.442C258.631 433.602 258.731 433.602 259.501 433.442C260.961 433.132 262.031 432.412 262.711 431.282C263.231 430.412 263.421 429.742 263.421 428.762C263.421 425.632 260.491 423.352 257.491 424.162Z" fill="black"/>
<path d="M307.711 424.912C306.121 425.342 305.061 426.502 304.761 428.162C304.541 429.322 304.991 430.682 305.881 431.562C306.761 432.452 308.121 432.902 309.281 432.682C311.061 432.352 312.271 431.142 312.601 429.362C312.821 428.212 312.371 426.842 311.501 425.972C310.941 425.412 310.431 425.122 309.611 424.912C308.911 424.732 308.401 424.732 307.711 424.912Z" fill="black"/>
<path d="M357.951 425.662C357.011 425.902 356.211 426.562 355.791 427.452C355.251 428.612 355.521 430.102 356.441 431.012C357.671 432.222 359.691 432.222 360.921 431.012C361.131 430.802 361.431 430.372 361.571 430.072C362.111 428.912 361.841 427.422 360.921 426.512C360.181 425.792 358.901 425.422 357.951 425.662Z" fill="black"/>
<path d="M407.881 426.492C407.391 426.652 406.551 427.512 406.401 428.022C406.121 428.962 406.321 429.712 407.031 430.412C407.541 430.932 408.051 431.162 408.681 431.162C409.921 431.162 411.081 430.002 411.081 428.762C411.081 428.132 410.851 427.622 410.331 427.112C409.631 426.402 408.811 426.202 407.881 426.492Z" fill="black"/>
</svg>
