<svg width="96" height="96" viewBox="0 0 96 96" fill="none" xmlns="http://www.w3.org/2000/svg">
<path d="M66.3315 68.7087C66.2769 68.8599 66.1731 68.9905 66.0348 69.0816C65.8965 69.1724 65.7312 69.2189 65.5632 69.2143H63.8862L64.9278 64.2752C65.0526 64.5094 65.1648 64.7494 65.2641 64.9943L66.3537 68.2266C66.4116 68.384 66.4035 68.5565 66.3315 68.7087ZM29.6693 68.711C29.5967 68.5588 29.5881 68.386 29.6453 68.2281L30.7227 65.0313C30.8253 64.7741 30.942 64.5225 31.0719 64.2767L32.1138 69.2143H30.4368C30.2874 69.2154 30.1407 69.1779 30.0123 69.1052C29.8841 69.0324 29.7794 68.9274 29.7097 68.802C29.6942 68.7726 29.6807 68.7421 29.6693 68.711ZM40.9599 64.7706C41.1519 64.9879 41.403 65.1508 41.6859 65.2416L44.0742 69.2143H42.0387L40.9599 64.7706ZM43.4727 65.0484L45.6132 64.4698C46.2723 65.0225 47.121 65.3274 48 65.3274C48.8787 65.3274 49.7274 65.0225 50.3865 64.4698L52.527 65.0484L50.0223 69.2143H45.9777L43.4727 65.0484ZM54.3138 65.2416C54.4806 65.1875 54.6369 65.1087 54.7773 65.0077C54.8736 64.9379 54.9618 64.8585 55.0401 64.7706L53.9613 69.2143H51.9255L54.3138 65.2416ZM51.6099 54.4905C50.5893 55.278 49.3146 55.7076 48 55.7076C46.6854 55.7076 45.4107 55.278 44.3898 54.4905C43.7949 54.0273 43.2663 53.5878 42.7623 53.1404C42.7707 53.2186 42.7872 53.2972 42.7953 53.3678C42.8838 54.0611 42.9306 54.7581 42.9357 55.4563L48 59.5857L53.064 55.4563C53.0691 54.7581 53.1159 54.0611 53.2044 53.3678C53.2128 53.2893 53.2293 53.2186 53.2374 53.1404C52.7337 53.5878 52.2048 54.0273 51.6099 54.4905ZM34.2285 61.054C32.9232 61.9569 32.7252 62.1137 32.6589 62.1766C32.5599 62.2708 32.469 62.3808 32.3781 62.475L33.7989 69.211H36.2112L34.2285 61.054ZM44.7534 62.0823L42.2172 60.6694V63.7548L44.7534 63.0717C44.7174 62.9091 44.6979 62.7433 44.6955 62.5772C44.6985 62.4108 44.7177 62.2452 44.7534 62.0823ZM44.7534 62.0823L42.2172 60.6694V63.7548L44.7534 63.0717C44.7174 62.9091 44.6979 62.7433 44.6955 62.5772C44.6985 62.4108 44.7177 62.2452 44.7534 62.0823ZM38.103 59.8528C37.2993 59.9017 36.5067 60.0576 35.7486 60.3159L37.9047 69.211H40.3419L38.1114 60.0099C38.1003 59.9581 38.0976 59.9052 38.103 59.8528ZM44.7534 62.0823L42.2172 60.6694V63.7548L44.7534 63.0717C44.7174 62.9091 44.6979 62.7433 44.6955 62.5772C44.6985 62.4108 44.7177 62.2452 44.7534 62.0823ZM44.7534 62.0823L42.2172 60.6694V63.7548L44.7534 63.0717C44.7174 62.9091 44.6979 62.7433 44.6955 62.5772C44.6985 62.4108 44.7177 62.2452 44.7534 62.0823ZM48 61.3996C47.1078 61.3996 46.3476 61.9412 46.3476 62.5772C46.3476 63.2209 47.1078 63.7548 48 63.7548C48.8922 63.7548 49.6521 63.2209 49.6521 62.5772C49.6521 61.9412 48.8922 61.3996 48 61.3996ZM57.8967 59.8528C57.9024 59.9052 57.8994 59.9581 57.8886 60.0099L55.6581 69.211H58.095L60.2511 60.3159C59.493 60.0576 58.7004 59.9017 57.8967 59.8528ZM63.3408 62.1766C63.2748 62.1137 63.0765 61.9569 61.7712 61.054L59.7885 69.211H62.2008L63.6216 62.475C63.531 62.3808 63.4401 62.2708 63.3408 62.1766ZM48 61.3996C47.1078 61.3996 46.3476 61.9412 46.3476 62.5772C46.3476 63.2209 47.1078 63.7548 48 63.7548C48.8922 63.7548 49.6521 63.2209 49.6521 62.5772C49.6521 61.9412 48.8922 61.3996 48 61.3996ZM48 61.3996C47.1078 61.3996 46.3476 61.9412 46.3476 62.5772C46.3476 63.2209 47.1078 63.7548 48 63.7548C48.8922 63.7548 49.6521 63.2209 49.6521 62.5772C49.6521 61.9412 48.8922 61.3996 48 61.3996ZM51.2466 62.0823C51.282 62.2452 51.3015 62.4108 51.3045 62.5772C51.3018 62.7433 51.2826 62.9091 51.2466 63.0717L53.7828 63.7548V60.6694L51.2466 62.0823ZM48 61.3996C47.1078 61.3996 46.3476 61.9412 46.3476 62.5772C46.3476 63.2209 47.1078 63.7548 48 63.7548C48.8922 63.7548 49.6521 63.2209 49.6521 62.5772C49.6521 61.9412 48.8922 61.3996 48 61.3996ZM48 61.3996C47.1078 61.3996 46.3476 61.9412 46.3476 62.5772C46.3476 63.2209 47.1078 63.7548 48 63.7548C48.8922 63.7548 49.6521 63.2209 49.6521 62.5772C49.6521 61.9412 48.8922 61.3996 48 61.3996ZM44.7534 62.0823L42.2172 60.6694V63.7548L44.7534 63.0717C44.7174 62.9091 44.6979 62.7433 44.6955 62.5772C44.6985 62.4108 44.7177 62.2452 44.7534 62.0823ZM53.7414 56.9795L49.7265 60.2452C49.9791 60.375 50.2125 60.5361 50.4204 60.7244L53.2128 59.1697C53.2905 59.1223 53.3778 59.0903 53.4687 59.0755C53.7075 59.0318 53.9535 59.0388 54.189 59.0958C54.4248 59.1529 54.6441 59.2585 54.8319 59.4054C55.1175 59.6271 55.3155 59.9343 55.3938 60.2767L56.0544 59.1776L53.7414 56.9795ZM57.7563 40.6022C57.7011 40.6252 57.6426 40.6412 57.5829 40.6493C57.5391 40.672 57.4977 40.6982 57.459 40.7279C57.1014 42.2156 56.9433 43.7402 56.988 45.2657C57.0951 45.4007 57.2169 45.5244 57.3516 45.6346C57.5499 45.2893 57.9132 44.1903 57.9132 41.7329C57.9366 41.3498 57.8835 40.9664 57.7563 40.6022ZM57.1863 25.4343C56.5419 25.0653 55.2285 25.7483 53.8323 26.4785C52.1223 27.3735 50.181 28.3862 48 28.3862C38.4831 28.3862 37.2603 31.5345 37.2603 34.2743C37.2567 34.6319 37.2843 34.9891 37.3431 35.3423C37.5024 36.4788 37.9134 37.5706 38.5491 38.5455L42.3081 33.984C42.4809 33.7513 42.702 33.5543 42.9576 33.4051C43.2132 33.2561 43.4982 33.1581 43.7949 33.1168C44.0916 33.0758 44.394 33.0924 44.6838 33.166C44.9736 33.2393 45.2445 33.3681 45.4803 33.5444C46.2015 34.0707 47.085 34.3564 47.9943 34.3578C48.9036 34.3593 49.7883 34.0762 50.5113 33.5523C50.7468 33.3743 51.018 33.2439 51.3081 33.1692C51.5985 33.0944 51.9018 33.0767 52.1994 33.1171C52.4973 33.1575 52.7832 33.2553 53.0397 33.4042C53.2962 33.5535 53.5182 33.7507 53.6919 33.984L57.2358 38.2863L57.6159 38.2941C58.35 37.0691 58.7373 35.6841 58.7394 34.2743C58.7394 27.6875 57.8967 25.8268 57.1863 25.4343ZM38.541 40.7357C38.4918 40.6973 38.4393 40.6633 38.3841 40.6336C38.3364 40.626 38.2896 40.6156 38.2434 40.6022C38.1156 40.9661 38.0622 41.3498 38.0865 41.7329C38.0865 44.1903 38.4501 45.2893 38.6484 45.6346C38.7828 45.5244 38.9046 45.4007 39.0117 45.2657C39.0567 43.7428 38.8986 42.2208 38.541 40.7357ZM52.395 34.9574C52.3515 34.8899 52.2942 34.8317 52.2261 34.7866C52.158 34.7412 52.0806 34.7098 51.9993 34.6944C51.9177 34.679 51.8337 34.6796 51.7524 34.6964C51.6714 34.7133 51.5946 34.7462 51.5274 34.7927C50.5167 35.529 49.2789 35.9287 48.0054 35.9302C46.7319 35.9316 45.4932 35.5345 44.4807 34.8006C44.4138 34.7526 44.337 34.7183 44.2551 34.7002C44.1735 34.6819 44.0886 34.6801 44.0064 34.695C43.9239 34.7098 43.8456 34.7407 43.7766 34.786C43.7073 34.8311 43.6491 34.8896 43.605 34.9574L39.9204 39.4324C39.9288 39.4639 39.9369 39.5031 39.9453 39.5424C39.9537 39.5796 39.9645 39.6166 39.9783 39.6524V39.6759C40.6236 41.9508 40.8306 44.3183 40.5897 46.6633C40.5732 46.8204 40.5648 46.9929 40.5648 47.1657C40.5648 48.6889 42.2916 50.8556 45.4308 53.2657C46.1565 53.8269 47.0631 54.1338 47.9985 54.1353C48.9339 54.1367 49.8414 53.8324 50.5692 53.2736C53.7084 50.8556 55.4349 48.6889 55.4349 47.1657C55.4349 46.9929 55.4268 46.8204 55.4103 46.6476C55.1802 44.3782 55.3674 42.0881 55.9638 39.8801C55.9719 39.8566 55.9803 39.8094 55.9968 39.7623L56.0379 39.6209C56.0544 39.5581 56.0628 39.4953 56.0793 39.4246L52.395 34.9574ZM47.1738 46.4433H48.8259C49.0452 46.4433 49.2552 46.5263 49.4103 46.6735C49.5651 46.8207 49.6521 47.0202 49.6521 47.2285C49.6521 47.4368 49.5651 47.6364 49.4103 47.7836C49.2552 47.9308 49.0452 48.0137 48.8259 48.0137H47.1738C46.9548 48.0137 46.7445 47.9308 46.5897 47.7836C46.4346 47.6364 46.3476 47.4368 46.3476 47.2285C46.3476 47.0202 46.4346 46.8207 46.5897 46.6735C46.7445 46.5263 46.9548 46.4433 47.1738 46.4433ZM44.6955 42.5178V43.303C44.6955 43.5113 44.6085 43.7108 44.4534 43.858C44.2986 44.0055 44.0886 44.0881 43.8693 44.0881C43.6503 44.0881 43.44 44.0055 43.2852 43.858C43.1304 43.7108 43.0431 43.5113 43.0431 43.303V42.5178H42.2172C41.9979 42.5178 41.7879 42.4352 41.6331 42.288C41.478 42.1408 41.391 41.9409 41.391 41.7329C41.391 41.5247 41.478 41.3248 41.6331 41.1776C41.7879 41.0304 41.9979 40.9478 42.2172 40.9478H45.5217C45.7407 40.9478 45.9507 41.0304 46.1058 41.1776C46.2606 41.3248 46.3476 41.5247 46.3476 41.7329C46.3476 41.9409 46.2606 42.1408 46.1058 42.288C45.9507 42.4352 45.7407 42.5178 45.5217 42.5178H44.6955ZM49.6521 51.154H46.3476C46.1286 51.154 45.9186 51.0711 45.7635 50.9239C45.6087 50.7767 45.5217 50.5772 45.5217 50.3689C45.5217 50.1606 45.6087 49.961 45.7635 49.8138C45.9186 49.6666 46.1286 49.5837 46.3476 49.5837H49.6521C49.8714 49.5837 50.0814 49.6666 50.2362 49.8138C50.3913 49.961 50.4783 50.1606 50.4783 50.3689C50.4783 50.5772 50.3913 50.7767 50.2362 50.9239C50.0814 51.0711 49.8714 51.154 49.6521 51.154ZM53.7828 42.5178H52.9566V43.303C52.9566 43.5113 52.8696 43.7108 52.7148 43.858C52.5597 44.0055 52.3497 44.0881 52.1304 44.0881C51.9114 44.0881 51.7014 44.0055 51.5463 43.858C51.3915 43.7108 51.3045 43.5113 51.3045 43.303V42.5178H50.4783C50.2593 42.5178 50.049 42.4352 49.8942 42.288C49.7391 42.1408 49.6521 41.9409 49.6521 41.7329C49.6521 41.5247 49.7391 41.3248 49.8942 41.1776C50.049 41.0304 50.2593 40.9478 50.4783 40.9478H53.7828C54.0018 40.9478 54.2121 41.0304 54.3669 41.1776C54.5217 41.3248 54.6087 41.5247 54.6087 41.7329C54.6087 41.9409 54.5217 42.1408 54.3669 42.288C54.2121 42.4352 54.0018 42.5178 53.7828 42.5178ZM42.2583 56.9795L39.9453 59.1776L40.6062 60.2767C40.6992 59.8775 40.9524 59.5287 41.3118 59.3044C41.6712 59.0801 42.1089 58.9981 42.531 59.0755C42.6222 59.0903 42.7092 59.1223 42.7872 59.1697L45.5793 60.7244C45.7875 60.5361 46.0206 60.375 46.2732 60.2452L42.2583 56.9795Z" fill="white"/>
<path d="M7.3403 34.631L6.48566 37.1674L0.179108 35.2477L0.995282 32.8253C1.20589 32.2007 1.50535 31.7955 1.89402 31.6087C2.28339 31.4202 2.74133 31.406 3.26783 31.5663C3.51062 31.6401 3.71492 31.7385 3.88076 31.8609C4.04414 31.9825 4.16762 32.1222 4.25087 32.2796C4.33136 32.4384 4.36457 32.6129 4.35095 32.8032C4.42616 32.6845 4.52375 32.5751 4.64339 32.4745C4.76096 32.3735 4.90052 32.2961 5.06252 32.2423C5.22449 32.1882 5.4029 32.1612 5.59775 32.1603C5.79017 32.1591 5.99972 32.1926 6.22643 32.2618C6.64553 32.3895 6.96005 32.5606 7.17029 32.7759C7.37843 32.9903 7.49285 33.2532 7.51418 33.5645C7.53413 33.8729 7.47605 34.2284 7.3403 34.631ZM4.30475 34.9632L5.6408 35.3696L6.01058 34.2729C6.05081 34.1533 6.05885 34.0439 6.03401 33.945C6.01163 33.847 5.95844 33.7612 5.8745 33.6881C5.78843 33.614 5.66984 33.5537 5.5187 33.5075C5.38121 33.4656 5.25668 33.4531 5.14508 33.4697C5.03348 33.486 4.93796 33.5264 4.85786 33.591C4.77563 33.655 4.71443 33.7466 4.6742 33.8659L4.30475 34.9632ZM1.96888 34.2519L3.19157 34.6243L3.5372 33.5994C3.58409 33.4601 3.5624 33.3332 3.47213 33.2192C3.38399 33.1063 3.25175 33.0228 3.07541 32.969C2.84418 32.8986 2.66856 32.8954 2.54822 32.9597C2.43032 33.0246 2.35161 33.1159 2.31208 33.2337L1.96888 34.2519Z" fill="white"/>
<path d="M8.99577 30.7764L8.2863 32.1254L3.26364 27.5986L4.12425 25.9612L10.9496 27.06L10.2353 28.4185L9.00624 28.1951L8.06625 29.9828L8.99577 30.7764ZM4.87326 27.3513L6.99012 29.0924L7.61076 27.9118L4.87326 27.3513Z" fill="white"/>
<path d="M12.3871 25.04L11.5107 26.2478L6.05847 22.6758L7.63905 20.4971C7.79754 20.279 7.97211 20.0965 8.16345 19.9496C8.35134 19.8033 8.56227 19.7059 8.79666 19.6566C9.03105 19.6074 9.29169 19.6204 9.57927 19.6949C9.86472 19.7684 10.1838 19.9203 10.5364 20.151C10.7761 20.308 10.9657 20.4629 11.106 20.6161C11.2442 20.7677 11.3449 20.917 11.4079 21.0637C11.4722 21.2086 11.5083 21.3499 11.516 21.4882C11.5237 21.6265 11.5198 21.7628 11.5041 21.8968L14.3217 22.3732L13.431 23.601L10.9289 23.1063C10.8947 23.1532 10.8555 23.2054 10.8114 23.2626C10.7652 23.3184 10.7222 23.3733 10.6826 23.4278C10.6417 23.4843 10.6001 23.5415 10.5578 23.6C10.5154 23.6582 10.4759 23.7131 10.4388 23.7636L12.3871 25.04ZM8.07531 22.215L9.43512 23.106L9.98193 22.3526C10.0435 22.2678 10.0855 22.1857 10.1079 22.1063C10.1338 22.0262 10.1362 21.9444 10.1149 21.8612C10.0904 21.7784 10.0432 21.6963 9.97389 21.6145C9.90111 21.5338 9.79965 21.4503 9.66882 21.3649C9.53622 21.2781 9.41799 21.2173 9.31479 21.1827C9.21192 21.1514 9.12132 21.1434 9.04296 21.1587C8.96145 21.1747 8.88588 21.2083 8.81625 21.2598C8.74803 21.3094 8.68332 21.3768 8.62176 21.4616L8.07531 22.215Z" fill="white"/>
<path d="M16.9651 19.635L15.069 21.5962L10.1922 17.3387L12.003 15.4656C12.47 14.9825 12.9209 14.7338 13.3558 14.7198C13.7924 14.7039 14.2143 14.8738 14.6215 15.2292C14.8094 15.3931 14.9514 15.5636 15.048 15.7408C15.1428 15.9167 15.1932 16.0926 15.1991 16.2685C15.2019 16.4447 15.155 16.6162 15.0585 16.7838C15.1792 16.706 15.316 16.6455 15.4692 16.6023C15.6203 16.5574 15.7812 16.5427 15.9523 16.5584C16.123 16.574 16.2973 16.6205 16.4743 16.6973C16.6495 16.7728 16.8248 16.8869 17.0001 17.0401C17.324 17.3231 17.5339 17.604 17.6298 17.8833C17.7239 18.1609 17.712 18.4451 17.5937 18.7364C17.4755 19.0243 17.266 19.3238 16.9651 19.635ZM14.0628 18.7257L15.0962 19.6277L15.9159 18.7796C16.0055 18.6872 16.0608 18.5911 16.0817 18.4917C16.1045 18.3936 16.0943 18.2945 16.0506 18.1944C16.0051 18.0927 15.924 17.991 15.8075 17.8889C15.7011 17.7962 15.5937 17.735 15.4853 17.7054C15.3768 17.6758 15.2719 17.6745 15.1711 17.7011C15.0683 17.7263 14.9724 17.7852 14.8828 17.8776L14.0628 18.7257ZM12.2566 17.1488L13.2022 17.9744L13.9684 17.1818C14.0726 17.074 14.1086 16.9504 14.0772 16.8111C14.0471 16.6731 13.9642 16.5448 13.8274 16.4257C13.6486 16.2695 13.4905 16.1967 13.3534 16.2069C13.2176 16.2189 13.106 16.2705 13.0179 16.3612L12.2566 17.1488Z" fill="white"/>
<path d="M20.6286 16.4703C20.5191 16.556 20.3806 16.6458 20.212 16.7392C20.0433 16.836 19.8593 16.9021 19.6592 16.9377C19.4591 16.9733 19.2478 16.9523 19.025 16.8752C18.8039 16.7968 18.5817 16.6289 18.3582 16.3719L16.0912 13.7633C15.8935 13.5359 15.7669 13.3168 15.7113 13.1057C15.6539 12.8926 15.6473 12.6981 15.6903 12.5219C15.7337 12.3457 15.8124 12.1814 15.9268 12.0295C16.0394 11.8759 16.1647 11.7449 16.3014 11.6375C16.6684 11.3493 16.9927 11.1053 17.2744 10.9051C17.5542 10.7033 17.8023 10.5277 18.0188 10.3782C18.2389 10.2292 18.4365 10.0962 18.6121 9.97917L19.4416 10.933L17.57 12.4022C17.4458 12.4996 17.373 12.6027 17.352 12.7114C17.331 12.8198 17.3716 12.9332 17.4741 13.0512L17.9405 13.5875L19.9227 12.1382L20.6968 13.0289L18.8203 14.5998L19.2636 15.1098C19.3479 15.2066 19.4287 15.2691 19.506 15.2973C19.5868 15.3256 19.6655 15.3319 19.7425 15.3163C19.8212 15.299 19.8929 15.2651 19.9576 15.2139L21.8625 13.7188L22.6871 14.6673C22.5034 14.8472 22.2949 15.0433 22.0619 15.2561C21.8307 15.4672 21.5903 15.6767 21.3405 15.8848C21.0911 16.0896 20.8539 16.2848 20.6286 16.4703Z" fill="white"/>
<path d="M24.8011 13.5386L23.4399 14.3139L21.7649 7.93085L23.4168 6.98965L28.5507 11.4028L27.1804 12.1835L26.2701 11.3669L24.4664 12.3942L24.8011 13.5386ZM23.2622 8.54459L24.0626 11.0939L25.2535 10.4154L23.2622 8.54459Z" fill="white"/>
<path d="M30.9054 10.4333L29.4834 11.0042L26.9061 5.20695L29.4711 4.17728C29.7279 4.07421 29.9788 4.0094 30.2226 3.98313C30.4635 3.95587 30.6969 3.98112 30.9222 4.05961C31.1475 4.13772 31.3602 4.28169 31.5606 4.49146C31.7601 4.69926 31.9431 4.99052 32.1096 5.36521C32.223 5.61987 32.2953 5.84759 32.3271 6.04809C32.358 6.24657 32.3583 6.42377 32.3286 6.57969C32.301 6.73463 32.2512 6.87261 32.1795 6.99296C32.1078 7.11363 32.0274 7.22636 31.9386 7.33175L34.0449 9.17263L32.5998 9.75276L30.7695 8.05786C30.714 8.08012 30.6516 8.10406 30.582 8.12934C30.5112 8.15261 30.444 8.17719 30.3798 8.20314C30.3132 8.22973 30.2457 8.25699 30.177 8.2846C30.1086 8.31217 30.0441 8.33812 29.9843 8.36206L30.9054 10.4333ZM28.867 5.84861L29.51 7.29484L30.3972 6.93844C30.4968 6.89853 30.5787 6.85065 30.6426 6.79514C30.7098 6.74094 30.7581 6.67313 30.7872 6.592C30.813 6.50956 30.8202 6.41646 30.8079 6.31206C30.7926 6.20666 30.7536 6.08465 30.6918 5.94569C30.6291 5.80471 30.5637 5.693 30.4962 5.61123C30.4272 5.53242 30.3552 5.47924 30.2808 5.4523C30.2031 5.42403 30.12 5.41373 30.0324 5.4217C29.9466 5.42868 29.8539 5.4523 29.7541 5.49219L28.867 5.84861Z" fill="white"/>
<path d="M36.669 8.43087L35.1927 8.85943L33.2586 2.84044L34.7352 2.41189L36.669 8.43087Z" fill="white"/>
<path d="M39.2625 7.92852L37.6998 8.19017L38.5365 1.65984L40.4334 1.34234L43.5678 7.20806L41.9943 7.47139L41.4513 6.39983L39.3804 6.74659L39.2625 7.92852ZM39.7038 2.74202L39.4923 5.39479L40.86 5.1657L39.7038 2.74202Z" fill="white"/>
<path d="M50.9043 7.17614L48.9798 7.09734L47.2506 0.727272L48.8469 0.792767L50.0214 5.55139L51.6255 0.906472L53.2035 0.970969L50.9043 7.17614Z" fill="white"/>
<path d="M54.738 7.58109L53.1786 7.29981L56.3943 1.47433L58.2867 1.81577L59.0325 8.35607L57.4629 8.07281L57.3543 6.88788L55.2885 6.5152L54.738 7.58109ZM57.0831 2.879L55.8969 5.28873L57.2613 5.53475L57.0831 2.879Z" fill="white"/>
<path d="M61.4736 9.13105L60.0213 8.65495L62.1801 2.70545L63.336 3.08413L64.4268 7.4697L65.733 3.86976L67.1925 4.34784L65.0337 10.2973L63.8676 9.91534L62.7765 5.54039L61.4736 9.13105Z" fill="white"/>
<path d="M67.8888 11.7536C67.5252 11.571 67.2663 11.3519 67.1118 11.0959C66.9594 10.8413 66.8889 10.555 66.8997 10.2375C66.9105 9.91968 66.9852 9.57757 67.1238 9.21018C67.2618 8.84015 67.443 8.45283 67.6671 8.04887C67.9098 7.61233 68.1582 7.23433 68.412 6.9145C68.6682 6.59599 68.943 6.35296 69.2373 6.1854C69.5328 6.01583 69.864 5.93903 70.2303 5.955C70.5957 5.96797 71.01 6.09065 71.4735 6.32337C71.7627 6.46865 72.0126 6.60829 72.2238 6.74228C72.4347 6.8766 72.6279 7.01356 72.8028 7.15319C72.9759 7.29184 73.1517 7.43814 73.3302 7.59241L72.7725 8.59546C72.6633 8.52265 72.5241 8.43319 72.3543 8.32748C72.1836 8.22374 71.9898 8.1097 71.7735 7.98572C71.5572 7.86135 71.3256 7.73769 71.079 7.61367C70.7619 7.45475 70.4964 7.38461 70.2819 7.40355C70.0644 7.42351 69.8619 7.54287 69.675 7.76163C69.486 7.97937 69.2721 8.30353 69.0324 8.73408C68.847 9.06755 68.7108 9.34682 68.6241 9.5719C68.5347 9.79599 68.4918 9.98351 68.4945 10.1348C68.4963 10.288 68.5422 10.4157 68.6325 10.5181C68.7204 10.6192 68.8431 10.7093 69.0006 10.7881C69.2043 10.8905 69.3996 10.9729 69.585 11.0351C69.7698 11.0943 69.9189 11.1368 70.0323 11.1624L70.524 10.2774L69.6024 9.81495L70.1736 8.78729C70.2963 8.83084 70.4379 8.88637 70.599 8.95418C70.7598 9.02199 70.9284 9.09516 71.1051 9.17361C71.2797 9.25108 71.4381 9.32521 71.5806 9.39668C71.7636 9.48847 71.9238 9.57158 72.0618 9.64605C72.2013 9.71852 72.3252 9.78868 72.4344 9.85649L70.6389 13.0874L69.612 12.5721L69.639 12.105C69.4515 12.1193 69.1953 12.1056 68.8704 12.0641C68.5473 12.0235 68.2203 11.9201 67.8888 11.7536Z" fill="white"/>
<path d="M73.8408 15.3326C73.545 15.1251 73.2861 14.9097 73.065 14.6866C72.843 14.4602 72.6825 14.2168 72.5829 13.9568C72.483 13.6965 72.4647 13.4182 72.5271 13.1213C72.5901 12.8248 72.7557 12.5036 73.0242 12.1578L75.6726 8.7454L76.9149 9.61612L74.2707 13.0232C74.1537 13.1742 74.0946 13.3198 74.0928 13.4605C74.0895 13.6031 74.1375 13.7417 74.2362 13.8764C74.3334 14.0127 74.475 14.146 74.661 14.276C74.8428 14.4037 75.0168 14.4914 75.1824 14.5396C75.3489 14.5908 75.5022 14.5935 75.6429 14.5469C75.7839 14.5037 75.9129 14.407 76.0299 14.256L78.6738 10.8493L79.9161 11.72L77.268 15.1324C76.9995 15.4782 76.7268 15.7242 76.449 15.8702C76.1694 16.0148 75.8829 16.0796 75.5901 16.0647C75.2991 16.051 75.009 15.9782 74.7198 15.8462C74.4318 15.7126 74.139 15.5414 73.8408 15.3326Z" fill="white"/>
<path d="M77.556 18.2706L76.4376 17.2004L82.5573 14.1254L83.9145 15.424L80.6367 21.2182L79.5108 20.1411L80.1264 19.1054L78.6447 17.6874L77.556 18.2706ZM82.2891 15.6537L79.8765 17.0032L80.8551 17.9398L82.2891 15.6537Z" fill="white"/>
<path d="M82.1901 23.1585L81.2664 21.9829L86.5722 18.217L88.2384 20.3372C88.4055 20.5496 88.5312 20.7654 88.6164 20.9845C88.7019 21.2003 88.7316 21.4217 88.7058 21.6485C88.68 21.8752 88.5837 22.1059 88.4172 22.341C88.2528 22.5747 87.9993 22.8131 87.6564 23.0565C87.4233 23.222 87.2079 23.3434 87.0105 23.4208C86.8149 23.4966 86.634 23.5395 86.4678 23.5492C86.3028 23.5608 86.1504 23.5478 86.0097 23.5106C85.8693 23.4734 85.7346 23.4262 85.6059 23.3693L84.2298 25.7538L83.2908 24.5592L84.5844 22.4643C84.5484 22.4184 84.5091 22.3666 84.4665 22.3087C84.426 22.2492 84.3846 22.193 84.3426 22.1398C84.2997 22.085 84.2556 22.0291 84.2112 21.9723C84.1665 21.9154 84.1248 21.8626 84.0858 21.813L82.1901 23.1585ZM86.3862 20.1803L85.0626 21.1195L85.6389 21.8529C85.7034 21.9354 85.7721 21.9995 85.8441 22.0454C85.9158 22.0946 85.9965 22.1229 86.0862 22.1302C86.1765 22.1345 86.2737 22.1186 86.3769 22.082C86.481 22.0424 86.5962 21.9776 86.7237 21.8872C86.8527 21.7954 86.9511 21.7086 87.0186 21.6265C87.0825 21.5441 87.1197 21.4649 87.1296 21.3895C87.1395 21.311 87.1302 21.2319 87.1011 21.1531C87.0735 21.076 87.0273 20.9958 86.9625 20.9134L86.3862 20.1803Z" fill="white"/>
<path d="M86.1264 29.0592L84.7587 26.668L90.5766 23.6619L91.9446 26.053C92.1687 26.4446 92.2785 26.804 92.274 27.1312C92.2719 27.4573 92.1825 27.7635 92.007 28.0495C91.8321 28.3324 91.5828 28.595 91.2594 28.8377C90.939 29.0814 90.5694 29.3111 90.1509 29.5276C89.4837 29.8723 88.8951 30.0829 88.3857 30.1585C87.8775 30.2365 87.4377 30.183 87.0663 29.9977C86.6925 29.8135 86.3793 29.5008 86.1264 29.0592ZM90.0972 25.5796L86.7096 27.33L87.2679 28.3055C87.3843 28.5083 87.5361 28.6376 87.7242 28.6941C87.9114 28.7483 88.1454 28.7367 88.4268 28.6589C88.7079 28.5811 89.0385 28.4441 89.4189 28.2476C89.7801 28.0611 90.0618 27.8905 90.264 27.7369C90.4695 27.584 90.6099 27.4424 90.6861 27.312C90.7641 27.1807 90.7971 27.0544 90.7854 26.933C90.7725 26.8097 90.729 26.6837 90.6555 26.5553L90.0972 25.5796Z" fill="white"/>
<path d="M88.0404 33.0944L87.5094 31.673L94.4244 31.3725L95.0691 33.0976L89.5032 37.0092L88.9686 35.5782L89.9901 34.8914L89.2866 33.0083L88.0404 33.0944ZM93.4956 32.6461L90.708 32.8887L91.1727 34.1324L93.4956 32.6461Z" fill="white"/>
<path d="M2.76898 63.1185L1.91397 60.5821L8.22051 58.6624L9.03705 61.0845C9.24765 61.7091 9.25185 62.2045 9.04929 62.5708C8.84778 62.9393 8.48358 63.2038 7.95708 63.3641C7.71429 63.438 7.48794 63.4708 7.27839 63.4627C7.07094 63.4537 6.88518 63.4083 6.72111 63.3263C6.55878 63.2416 6.4248 63.1177 6.3195 62.9556C6.33069 63.0938 6.31845 63.2369 6.28242 63.3844C6.24846 63.5313 6.18234 63.6716 6.08334 63.8048C5.98434 63.938 5.85594 64.0588 5.69784 64.167C5.54214 64.2743 5.3508 64.3625 5.12409 64.4314C4.70499 64.5591 4.3443 64.5932 4.04133 64.5344C3.74082 64.4745 3.48684 64.3241 3.27939 64.0823C3.07473 63.8423 2.90471 63.5209 2.76898 63.1185ZM5.03664 61.1718L3.70059 61.5788L4.07037 62.6755C4.1106 62.7953 4.17114 62.8884 4.2516 62.9553C4.32996 63.0228 4.42545 63.063 4.53846 63.0767C4.6539 63.0895 4.78719 63.0729 4.93833 63.0266C5.07582 62.9847 5.18496 62.9265 5.26578 62.8515C5.3466 62.7764 5.39976 62.6909 5.42529 62.594C5.45328 62.4969 5.44698 62.3884 5.40642 62.2688L5.03664 61.1718ZM7.3725 60.4611L6.14982 60.8332L6.49512 61.858C6.54198 61.9974 6.63714 62.0884 6.78024 62.1315C6.92121 62.1748 7.0797 62.1699 7.25637 62.1161C7.48761 62.0457 7.63245 61.9511 7.69086 61.8324C7.74717 61.7143 7.75524 61.5968 7.7157 61.4793L7.3725 60.4611Z" fill="white"/>
<path d="M4.70147 67.6204L3.992 66.2711L10.8174 65.1724L11.678 66.8099L6.65534 71.3367L5.94131 69.9782L6.86732 69.1785L5.9273 67.3905L4.70147 67.6204ZM10.0586 66.5443L7.32281 67.1075L7.94342 68.288L10.0586 66.5443Z" fill="white"/>
<path d="M8.43495 73.9069L7.55859 72.6991L13.0105 69.1273L14.591 71.3056C14.7495 71.5235 14.8667 71.7437 14.943 71.966C15.02 72.1847 15.041 72.407 15.0063 72.6324C14.9713 72.8579 14.866 73.0851 14.6901 73.3143C14.5166 73.5421 14.2535 73.7711 13.9012 74.0017C13.6615 74.1588 13.4418 74.2723 13.2414 74.3427C13.043 74.4113 12.8608 74.4477 12.6939 74.4515C12.5284 74.4573 12.3766 74.439 12.2377 74.3965C12.0988 74.3543 11.9662 74.3023 11.8399 74.2409L10.3696 76.574L9.47886 75.3463L10.8551 73.2995C10.8209 73.2527 10.7838 73.1991 10.7435 73.1398C10.7051 73.079 10.6662 73.0211 10.6263 72.9664C10.5854 72.91 10.5438 72.8527 10.5014 72.7945C10.4591 72.7363 10.4196 72.6816 10.3829 72.6307L8.43495 73.9069ZM12.7467 71.0822L11.3865 71.9729L11.9333 72.7264C11.9949 72.8113 12.0607 72.8777 12.1307 72.9263C12.2003 72.9777 12.2797 73.0092 12.3692 73.0196C12.4595 73.0272 12.5567 73.0147 12.6617 72.9821C12.767 72.9463 12.8852 72.8858 13.0161 72.8C13.1487 72.713 13.2505 72.6298 13.3208 72.5498C13.3883 72.4698 13.4282 72.3919 13.4411 72.3171C13.4544 72.2391 13.4481 72.16 13.4222 72.0797C13.3978 72.0017 13.3547 71.9203 13.2932 71.8353L12.7467 71.0822Z" fill="white"/>
<path d="M13.43 79.8089L11.5338 77.8479L16.4106 73.5901L18.2214 75.463C18.6884 75.9462 18.9109 76.3939 18.8889 76.8073C18.8685 77.2221 18.6548 77.607 18.2476 77.9628C18.0597 78.1268 17.8691 78.2467 17.6753 78.3232C17.4832 78.398 17.2943 78.4308 17.1092 78.4215C16.9242 78.4093 16.7482 78.3506 16.581 78.245C16.652 78.366 16.7041 78.5007 16.7366 78.6493C16.7709 78.7962 16.7727 78.9498 16.7415 79.1104C16.7104 79.271 16.6471 79.4316 16.5516 79.5924C16.4578 79.7522 16.3231 79.9084 16.1475 80.0617C15.8235 80.3447 15.5112 80.5196 15.2103 80.5868C14.9112 80.6522 14.6142 80.617 14.3189 80.4806C14.0271 80.3442 13.7308 80.1204 13.43 79.8089ZM14.6289 77.138L13.5958 78.0399L14.4154 78.8882C14.505 78.9804 14.6009 79.0409 14.7037 79.0697C14.8045 79.0996 14.9091 79.0982 15.0179 79.0653C15.1284 79.031 15.2421 78.9626 15.3586 78.8605C15.465 78.7677 15.5381 78.6714 15.5783 78.5708C15.6186 78.4704 15.629 78.3715 15.6094 78.274C15.5916 78.1746 15.5381 78.0786 15.4489 77.986L14.6289 77.138ZM16.4351 75.561L15.4895 76.3866L16.2556 77.1791C16.3599 77.287 16.4862 77.3315 16.6352 77.3132C16.7821 77.2966 16.9242 77.2288 17.0602 77.1098C17.239 76.9533 17.3289 76.8102 17.3296 76.6787C17.3286 76.5495 17.2841 76.439 17.1963 76.3482L16.4351 75.561Z" fill="white"/>
<path d="M17.5025 83.4842C17.393 83.3984 17.274 83.2855 17.146 83.1462C17.0141 83.0074 16.9112 82.8477 16.8367 82.6679C16.7622 82.4881 16.744 82.2868 16.7811 82.064C16.8203 81.8429 16.9518 81.6041 17.1753 81.3466L19.4426 78.738C19.6403 78.5108 19.8429 78.3511 20.0507 78.2598C20.2599 78.1658 20.4596 78.1228 20.6499 78.1297C20.8403 78.1367 21.0246 78.1792 21.2034 78.2575C21.3836 78.3334 21.542 78.4256 21.6792 78.5332C22.0462 78.8215 22.3596 79.0778 22.6199 79.3027C22.8812 79.5258 23.1097 79.7242 23.3045 79.8982C23.5001 80.0753 23.6747 80.2345 23.8293 80.3764L22.9998 81.3306L21.1285 79.8615C21.0043 79.7641 20.8843 79.7155 20.7678 79.7164C20.6517 79.7169 20.5425 79.7763 20.4401 79.8944L19.9737 80.4311L21.8457 82.0073L21.0715 82.898L19.0939 81.4432L18.6506 81.9535C18.5663 82.05 18.517 82.1376 18.5026 82.215C18.4886 82.2959 18.497 82.3706 18.5275 82.4393C18.56 82.5094 18.609 82.5699 18.674 82.6208L20.5789 84.1161L19.754 85.065C19.5336 84.9274 19.2915 84.77 19.0277 84.5926C18.7657 84.4166 18.504 84.2319 18.242 84.0381C17.9835 83.8438 17.7368 83.6593 17.5025 83.4842Z" fill="white"/>
<path d="M22.3334 86.7322L20.9722 85.9569L26.106 81.5439L27.758 82.4849L26.0829 88.8681L24.7123 88.0876L25.0408 86.9396L23.2374 85.9124L22.3334 86.7322ZM26.2421 83.088L24.2537 84.9609L25.4448 85.6393L26.2421 83.088Z" fill="white"/>
<path d="M29.037 90.1268L27.6149 89.5561L30.1923 83.7588L32.7573 84.7884C33.0141 84.8913 33.2376 85.017 33.4275 85.1654C33.6159 85.3105 33.7596 85.4871 33.8577 85.6954C33.9558 85.9034 33.9957 86.1489 33.9768 86.4317C33.9588 86.7124 33.867 87.0403 33.7002 87.4144C33.5871 87.6692 33.4659 87.8772 33.3366 88.039C33.2082 88.1981 33.0747 88.322 32.9367 88.4102C32.8005 88.4995 32.6616 88.5614 32.5206 88.5972C32.3796 88.6324 32.2386 88.6563 32.0973 88.6688L32.1768 91.3876L30.7317 90.807L30.7344 88.3785C30.6792 88.3561 30.6177 88.3302 30.5496 88.3005C30.483 88.2685 30.4173 88.24 30.3534 88.2141C30.2871 88.1876 30.2193 88.1603 30.1506 88.1329C30.0819 88.1053 30.0177 88.0794 29.9581 88.0556L29.037 90.1268ZM31.0755 85.5421L30.4326 86.9882L31.3197 87.3443C31.4193 87.3841 31.5123 87.4068 31.599 87.4118C31.6866 87.4199 31.7712 87.4057 31.8528 87.3687C31.9332 87.3292 32.0082 87.2687 32.0784 87.1878C32.1471 87.1037 32.2125 86.9923 32.274 86.8532C32.3367 86.7124 32.3754 86.59 32.3898 86.4867C32.4015 86.3846 32.3913 86.2988 32.3598 86.2289C32.3268 86.1562 32.2767 86.0925 32.2092 86.0384C32.1444 85.9849 32.0619 85.9383 31.9623 85.8982L31.0755 85.5421Z" fill="white"/>
<path d="M35.2674 92.2897L33.7905 91.8612L35.7249 85.8423L37.2012 86.2708L35.2674 92.2897Z" fill="white"/>
<path d="M38.4297 92.9219L36.8667 92.6601L40.0014 86.7948L41.898 87.1124L42.735 93.6428L41.1615 93.3789L41.0364 92.1958L38.9658 91.849L38.4297 92.9219ZM40.7094 88.1906L39.5571 90.615L40.9245 90.8439L40.7094 88.1906Z" fill="white"/>
<path d="M51.1107 93.7393L49.1868 93.8182L46.8873 87.6131L48.4836 87.5479L50.0841 92.1929L51.2619 87.4342L52.8405 87.3693L51.1107 93.7393Z" fill="white"/>
<path d="M55.6332 93.2582L54.0738 93.5398L54.8199 86.9993L56.712 86.658L59.9277 92.4838L58.3581 92.7668L57.8004 91.7021L55.7343 92.0748L55.6332 93.2582ZM56.0022 88.0666L55.8276 90.722L57.192 90.4756L56.0022 88.0666Z" fill="white"/>
<path d="M63.0384 91.5395L61.5861 92.0154L59.4276 86.066L60.5835 85.687L64.2867 88.5021L62.9805 84.9018L64.44 84.4233L66.5985 90.3732L65.4324 90.7552L61.7358 87.9491L63.0384 91.5395Z" fill="white"/>
<path d="M70.1709 88.7107C69.8076 88.8934 69.471 88.9731 69.1617 88.9498C68.8545 88.9257 68.5659 88.8198 68.2959 88.6327C68.0259 88.4451 67.7703 88.1934 67.5297 87.8775C67.2855 87.5607 67.0512 87.2003 66.8265 86.7962C66.5841 86.3596 66.3951 85.9517 66.2604 85.5724C66.1281 85.1916 66.0717 84.839 66.0924 84.5132C66.1116 84.1856 66.2313 83.8825 66.4515 83.6041C66.6687 83.3245 67.0092 83.0685 67.4727 82.8355C67.7622 82.69 68.0244 82.5728 68.2599 82.4829C68.4954 82.3933 68.7234 82.3188 68.9436 82.2601C69.1614 82.2022 69.3879 82.1469 69.6222 82.094L70.1799 83.097C70.0548 83.1415 69.8988 83.2009 69.711 83.2742C69.5244 83.3498 69.3165 83.4377 69.0864 83.5372C68.8566 83.6372 68.6181 83.7489 68.3715 83.8732C68.0544 84.032 67.8438 84.2013 67.7397 84.3802C67.6344 84.5623 67.6239 84.7884 67.7088 85.0586C67.7913 85.33 67.9527 85.6806 68.1918 86.1108C68.3772 86.4445 68.5428 86.7087 68.6895 86.9039C68.8341 87.0999 68.973 87.2396 69.1059 87.3228C69.24 87.408 69.3768 87.4438 69.5166 87.4304C69.654 87.4185 69.8013 87.3731 69.9588 87.294C70.1628 87.1916 70.3443 87.0848 70.503 86.9743C70.6584 86.8625 70.7793 86.7694 70.8657 86.695L70.374 85.81L69.4524 86.2729L68.8812 85.2451C68.9883 85.1732 69.1164 85.0935 69.2661 85.0054C69.4158 84.9172 69.5742 84.8262 69.7422 84.7319C69.9075 84.6385 70.062 84.5559 70.2042 84.4844C70.3872 84.3927 70.5498 84.3136 70.6923 84.247C70.8336 84.1786 70.9647 84.1207 71.0853 84.0733L72.8808 87.3041L71.8539 87.8199L71.4633 87.5351C71.3703 87.6905 71.214 87.8839 70.9947 88.1155C70.7772 88.3459 70.5027 88.5443 70.1709 88.7107Z" fill="white"/>
<path d="M76.7418 84.7628C76.4457 84.9702 76.1526 85.1415 75.8628 85.2765C75.5697 85.4106 75.2775 85.4848 74.9865 85.4985C74.6955 85.5122 74.4099 85.4467 74.1306 85.3021C73.851 85.1575 73.5768 84.912 73.3086 84.5667L70.6605 81.154L71.9028 80.2831L74.5467 83.6902C74.664 83.8412 74.7927 83.938 74.9337 83.9811C75.0762 84.0259 75.2298 84.0236 75.3942 83.9735C75.5601 83.9252 75.7359 83.8362 75.9216 83.7062C76.1037 83.5785 76.2432 83.447 76.3404 83.3103C76.4412 83.1741 76.4892 83.0356 76.4838 82.8946C76.482 82.754 76.4226 82.608 76.3059 82.457L73.6617 79.0502L74.9043 78.1795L77.5527 81.5922C77.8209 81.9378 77.9874 82.2583 78.0522 82.5536C78.1152 82.85 78.0957 83.1293 77.9937 83.3906C77.8941 83.6509 77.7354 83.8927 77.5173 84.1164C77.298 84.3383 77.0394 84.5536 76.7418 84.7628Z" fill="white"/>
<path d="M80.9622 81.3018L79.8438 82.3721L76.5657 76.5778L77.9232 75.2788L84.0426 78.354L82.9167 79.4316L81.8232 78.8535L80.3412 80.2714L80.9622 81.3018ZM78.1761 76.8221L79.6125 79.1055L80.5914 78.169L78.1761 76.8221Z" fill="white"/>
<path d="M86.0361 75.929L85.1124 77.1046L79.8066 73.3385L81.4728 71.2183C81.6399 71.006 81.8217 70.83 82.0188 70.69C82.2123 70.5507 82.4271 70.4608 82.6626 70.4201C82.899 70.3796 83.1591 70.4015 83.4435 70.4867C83.7258 70.5702 84.0387 70.7337 84.3816 70.9769C84.6144 71.1427 84.7983 71.3042 84.9324 71.4621C85.0647 71.6186 85.1592 71.7714 85.2162 71.9203C85.2747 72.0672 85.305 72.21 85.3071 72.3485C85.3092 72.487 85.3002 72.6231 85.2792 72.7564L88.0758 73.3338L87.1368 74.5283L84.6564 73.9442C84.6204 73.9901 84.5793 74.0407 84.5325 74.0963C84.4839 74.1501 84.4392 74.2039 84.3972 74.2569C84.3543 74.3116 84.3102 74.3674 84.2658 74.4244C84.2208 74.4812 84.1794 74.5341 84.1404 74.5836L86.0361 75.929ZM81.84 72.951L83.1636 73.8903L83.7399 73.157C83.8047 73.0746 83.85 72.994 83.8755 72.9152C83.9046 72.8361 83.9103 72.7546 83.8923 72.6706C83.871 72.5871 83.8275 72.5033 83.7615 72.4192C83.6922 72.3357 83.5941 72.249 83.4666 72.1586C83.3376 72.0669 83.2221 72.002 83.1201 71.9642C83.0184 71.9293 82.9284 71.918 82.8492 71.9302C82.767 71.9433 82.6899 71.9741 82.6188 72.0233C82.5486 72.0704 82.4811 72.1353 82.4166 72.2173L81.84 72.951Z" fill="white"/>
<path d="M90.3438 69.4775L88.9758 71.8688L83.1582 68.8625L84.5259 66.4719C84.75 66.08 85.0077 65.7972 85.299 65.6227C85.5885 65.447 85.9071 65.3516 86.2554 65.3364C86.6001 65.3222 86.9676 65.378 87.3579 65.5043C87.7473 65.6273 88.1511 65.7972 88.5693 66.0128C89.2368 66.3578 89.7429 66.7127 90.087 67.0781C90.4323 67.4412 90.624 67.8211 90.6621 68.2182C90.7026 68.6161 90.5964 69.0359 90.3438 69.4775ZM85.1124 68.2025L88.4997 69.9526L89.0577 68.9772C89.1741 68.7744 89.2053 68.5827 89.1531 68.402C89.0991 68.2234 88.9617 68.0431 88.7397 67.8607C88.5183 67.6785 88.2174 67.4895 87.8373 67.2928C87.4758 67.1063 87.1725 66.974 86.9268 66.8966C86.6802 66.8157 86.4789 66.7805 86.322 66.791C86.1636 66.8 86.0343 66.8425 85.9335 66.9178C85.8315 66.9955 85.7439 67.0985 85.6704 67.2268L85.1124 68.2025Z" fill="white"/>
<path d="M92.5638 64.7901L92.0328 66.2115L86.4672 62.2999L87.1116 60.5748L94.0269 60.8753L93.492 62.3063L92.2434 62.2269L91.5396 64.11L92.5638 64.7901ZM88.0332 61.8679L90.3573 63.351L90.822 62.1071L88.0332 61.8679Z" fill="white"/>
<path d="M0 48.1789C0 46.8393 1.14293 45.7533 2.55242 45.753C3.96228 45.753 5.10486 46.8393 5.10486 48.1789C5.10486 49.5188 3.96192 50.6048 2.55242 50.6048C1.14257 50.6048 0 49.5185 0 48.1789Z" fill="white"/>
<path d="M90.8952 48.1789C90.8952 46.8393 92.0382 45.7533 93.4476 45.753C94.8573 45.753 96 46.8393 96 48.1789C96 49.5188 94.857 50.6048 93.4476 50.6048C92.0376 50.6048 90.8952 49.5185 90.8952 48.1789Z" fill="white"/>
</svg>
